<svg width="24" height="24" viewBox="0 0 24 24" fill="none" xmlns="http://www.w3.org/2000/svg">
<g clip-path="url(#clip0_12142_713)">
<path d="M23.6 2.4C23.8209 2.4 24 2.2209 24 2V0.4C24 0.1791 23.8209 0 23.6 0H0.4C0.1791 0 0 0.1791 0 0.4V2C0 2.2209 0.1791 2.4 0.4 2.4H1.2V21.6H0.4C0.1791 21.6 0 21.7791 0 22V23.6C0 23.8209 0.1791 24 0.4 24H23.6C23.8209 24 24 23.8209 24 23.6V22C24 21.7791 23.8209 21.6 23.6 21.6H22.8V2.4H23.6ZM23.2 22.4V23.2H0.8V22.4H23.2ZM2 21.6V2.4H22V21.6H2ZM0.8 1.6V0.8H23.2V1.6H0.8Z" fill="#473F39"/>
<path d="M11.1998 3.20001H3.1998C2.9789 3.20001 2.7998 3.37911 2.7998 3.60001V20.4C2.7998 20.6209 2.9789 20.8 3.1998 20.8H11.1998C11.4207 20.8 11.5998 20.6209 11.5998 20.4V3.60001C11.5998 3.37911 11.4207 3.20001 11.1998 3.20001ZM6.7998 20H3.5998V15.2H6.7998V20ZM6.7998 14.4H3.5998V9.60001H6.7998V14.4ZM6.7998 8.80001H3.5998V4.00001H6.7998V8.80001ZM10.7998 20H7.5998V15.2H10.7998V20ZM10.7998 14.4H7.5998V9.60001H10.7998V14.4ZM10.7998 8.80001H7.5998V4.00001H10.7998V8.80001Z" fill="#473F39"/>
<path d="M20.7999 3.20001H12.7999C12.579 3.20001 12.3999 3.37911 12.3999 3.60001V20.4C12.3999 20.6209 12.579 20.8 12.7999 20.8H20.7999C21.0208 20.8 21.1999 20.6209 21.1999 20.4V3.60001C21.1999 3.37911 21.0208 3.20001 20.7999 3.20001ZM16.3999 20H13.1999V15.2H16.3999V20ZM16.3999 14.4H13.1999V9.60001H16.3999V14.4ZM16.3999 8.80001H13.1999V4.00001H16.3999V8.80001ZM20.3999 20H17.1999V15.2H20.3999V20ZM20.3999 14.4H17.1999V9.60001H20.3999V14.4ZM20.3999 8.80001H17.1999V4.00001H20.3999V8.80001Z" fill="#473F39"/>
</g>
<defs>
<clipPath id="clip0_12142_713">
<rect width="24" height="24" fill="white"/>
</clipPath>
</defs>
</svg>
