<svg width="50" height="50" viewBox="0 0 50 50" fill="none" xmlns="http://www.w3.org/2000/svg">
<g clip-path="url(#clip0_186_276)">
<path d="M9.57273 30.9829C9.76013 30.9829 9.94763 30.9114 10.0906 30.7685L11.1976 29.6613C11.4837 29.3753 11.4837 28.9116 11.1976 28.6256C10.9116 28.3396 10.4478 28.3396 10.1619 28.6256L9.05486 29.7327C8.76882 30.0188 8.76882 30.4824 9.05486 30.7685C9.19792 30.9114 9.38533 30.9829 9.57273 30.9829Z" fill="#2A2622"/>
<path d="M40.6922 30.7683C40.8351 30.9113 41.0226 30.9828 41.21 30.9828C41.3974 30.9828 41.5849 30.9113 41.7279 30.7683C42.0139 30.4823 42.0139 30.0185 41.7279 29.7326L40.6209 28.6255C40.3348 28.3394 39.8711 28.3394 39.5851 28.6255C39.2991 28.9115 39.2991 29.3753 39.5851 29.6612L40.6922 30.7683Z" fill="#2A2622"/>
<path d="M47.7913 23.2604C43.6546 21.3393 37.4321 21.1555 36.1757 21.1382L30.2419 17.3621C28.4885 16.2463 26.4633 15.6566 24.3851 15.6566H17.4105C15.6049 15.6566 13.7968 16.0834 12.1817 16.8909L8.4666 18.7484C7.34736 19.3081 6.1502 19.6705 4.9084 19.8258L2.01309 20.1877C0.86543 20.3311 0 21.3114 0 22.468V27.1427C0 28.511 0.918848 29.7291 2.23447 30.105L5.69453 31.0936C6.28887 32.9753 8.05059 34.3435 10.1263 34.3435C11.8527 34.3435 13.3611 33.3963 14.1622 31.9949H36.6205C37.4216 33.3963 38.93 34.3435 40.6564 34.3435C43.2186 34.3435 45.303 32.259 45.303 29.6969C45.303 27.1348 43.2186 25.0503 40.6564 25.0503C38.0943 25.0503 36.0099 27.1347 36.0099 29.6969C36.0099 29.9815 36.0369 30.2596 36.0861 30.5301H14.6965C14.7457 30.2595 14.7728 29.9814 14.7728 29.6969C14.7728 27.1348 12.6883 25.0503 10.1262 25.0503C7.62676 25.0503 5.58291 27.0343 5.48438 29.51L2.63682 28.6964C1.94687 28.4993 1.46484 27.8605 1.46484 27.1427V24.9496H2.29805C2.70254 24.9496 3.03047 24.6217 3.03047 24.2172C3.03047 23.8127 2.70254 23.4848 2.29805 23.4848H1.46484V22.468C1.46484 22.0486 1.77861 21.6932 2.19473 21.6412L5.09004 21.2793C6.49707 21.1034 7.85342 20.6927 9.12168 20.0586L9.45576 19.8916L10.8105 21.2401C11.6882 22.1178 12.8551 22.6012 14.0962 22.6012H15.6062C16.0106 22.6012 16.3386 22.2733 16.3386 21.8688C16.3386 21.4643 16.0106 21.1363 15.6062 21.1363H14.0962C13.9682 21.1363 13.8416 21.1279 13.7164 21.1131L14.5257 17.5385C15.4614 17.2639 16.4364 17.1213 17.4106 17.1213H21.1364V21.1362H18.7376C18.3331 21.1362 18.0052 21.4642 18.0052 21.8687C18.0052 22.2732 18.3331 22.6011 18.7376 22.6011H35.9596C36.029 22.6011 42.9484 22.6263 47.1744 24.5888C47.4224 24.7039 47.6433 24.8616 47.832 25.0503H46.9192C46.5147 25.0503 46.1868 25.3782 46.1868 25.7827C46.1868 26.1872 46.5147 26.5152 46.9192 26.5152H48.522C48.5299 26.5944 48.5353 26.6741 48.5353 26.755V29.3538C48.5353 30.0794 48.2159 30.5301 47.702 30.5301C47.2976 30.5301 46.9696 30.858 46.9696 31.2625C46.9696 31.667 47.2976 31.9949 47.702 31.9949C48.3507 31.9949 48.94 31.728 49.3617 31.2434C49.7793 30.7632 50.0001 30.1099 50.0001 29.3538V26.755C50 25.2552 49.133 23.8834 47.7913 23.2604ZM40.6564 26.5152C42.4108 26.5152 43.8382 27.9426 43.8382 29.697C43.8382 31.4514 42.4108 32.8787 40.6564 32.8787C38.9021 32.8787 37.4747 31.4514 37.4747 29.697C37.4747 27.9426 38.9021 26.5152 40.6564 26.5152ZM10.1263 26.5152C11.8807 26.5152 13.308 27.9426 13.308 29.697C13.308 31.4514 11.8807 32.8787 10.1263 32.8787C8.37187 32.8787 6.94453 31.4514 6.94453 29.697C6.94453 27.9426 8.37197 26.5152 10.1263 26.5152ZM12.33 20.6023C12.158 20.487 11.996 20.3541 11.8463 20.2044L10.8409 19.199L12.8368 18.2011C12.8505 18.1943 12.8645 18.1879 12.8781 18.1812L12.33 20.6023ZM22.6012 17.1213H24.3851C26.1842 17.1213 27.9375 17.6319 29.4555 18.5979L33.4444 21.1363H22.6012V17.1213Z" fill="#2A2622"/>
<path d="M17.1719 27.3989C16.7674 27.3989 16.4395 27.7268 16.4395 28.1313C16.4395 28.5358 16.7674 28.8637 17.1719 28.8637H33.6111C34.0156 28.8637 34.3436 28.5358 34.3436 28.1313C34.3436 27.7268 34.0156 27.3989 33.6111 27.3989H17.1719Z" fill="#2A2622"/>
</g>
<defs>
<clipPath id="clip0_186_276">
<rect width="50" height="50" fill="white"/>
</clipPath>
</defs>
</svg>
