<svg width="14" height="14" viewBox="0 0 14 14" fill="none" xmlns="http://www.w3.org/2000/svg">
<path d="M11.025 3.49996C10.9083 3.14996 10.5583 2.91663 10.2083 2.91663H3.79167C3.38333 2.91663 3.09167 3.14996 2.975 3.49996L1.75 6.99996V11.6666C1.75 11.9583 2.04167 12.25 2.33333 12.25H2.91667C3.26667 12.25 3.5 11.9583 3.5 11.6666V11.0833H10.5V11.6666C10.5 11.9583 10.7917 12.25 11.0833 12.25H11.6667C11.9583 12.25 12.25 11.9583 12.25 11.6666V6.99996L11.025 3.49996ZM3.96667 4.08329H9.975L10.6167 5.83329H3.38333L3.96667 4.08329ZM11.0833 9.91663H2.91667V6.99996H11.0833V9.91663ZM4.375 7.58329C4.84167 7.58329 5.25 7.99163 5.25 8.45829C5.25 8.92496 4.84167 9.33329 4.375 9.33329C3.90833 9.33329 3.5 8.92496 3.5 8.45829C3.5 7.99163 3.90833 7.58329 4.375 7.58329ZM9.625 7.58329C10.0917 7.58329 10.5 7.99163 10.5 8.45829C10.5 8.92496 10.0917 9.33329 9.625 9.33329C9.15833 9.33329 8.75 8.92496 8.75 8.45829C8.75 7.99163 9.15833 7.58329 9.625 7.58329Z" fill="#473F39"/>
</svg>
