<svg width="33" height="32" viewBox="0 0 33 32" fill="none" xmlns="http://www.w3.org/2000/svg">
<path d="M31.412 5.82401H29.3L30.9 1.08801H28.02L26.356 7.10401L28.276 6.97601L26.548 11.776L31.412 5.82401Z" stroke="black" stroke-width="0.96" stroke-miterlimit="10" stroke-linecap="round" stroke-linejoin="round"/>
<path d="M15.6039 20.288C15.6039 18.816 16.1799 17.408 17.1399 16.384C18.4839 14.912 19.2519 12.928 19.1239 10.752C18.8679 6.97602 15.7959 3.90402 12.0199 3.77602C7.73191 3.58402 4.21191 6.97602 4.21191 11.264C4.21191 13.248 4.97991 15.104 6.25991 16.448C7.21991 17.472 7.73191 18.88 7.73191 20.288" stroke="black" stroke-width="0.96" stroke-miterlimit="10" stroke-linecap="round" stroke-linejoin="round"/>
<path d="M15.1559 23.808H8.24387C7.53987 23.808 6.96387 23.232 6.96387 22.528V21.504C6.96387 20.8 7.53987 20.224 8.24387 20.224H15.2199C15.9239 20.224 16.4999 20.8 16.4999 21.504V22.528C16.4359 23.232 15.8599 23.808 15.1559 23.808Z" stroke="black" stroke-width="0.96" stroke-miterlimit="10" stroke-linecap="round" stroke-linejoin="round"/>
<path d="M14.7079 23.808C14.5159 25.344 13.2359 26.496 11.6999 26.496C10.1639 26.496 8.88389 25.344 8.69189 23.808" stroke="black" stroke-width="0.96" stroke-miterlimit="10" stroke-linecap="round" stroke-linejoin="round"/>
<path d="M16.4359 22.016H6.96387" stroke="black" stroke-width="0.96" stroke-miterlimit="10" stroke-linecap="round" stroke-linejoin="round"/>
<path d="M11.7002 2.17601V1.08801" stroke="black" stroke-width="0.96" stroke-miterlimit="10" stroke-linecap="round" stroke-linejoin="round"/>
<path d="M20.7236 11.2H21.7476" stroke="black" stroke-width="0.96" stroke-miterlimit="10" stroke-linecap="round" stroke-linejoin="round"/>
<path d="M1.65186 11.2H2.67586" stroke="black" stroke-width="0.96" stroke-miterlimit="10" stroke-linecap="round" stroke-linejoin="round"/>
<path d="M7.22004 3.39203L6.64404 2.49603" stroke="black" stroke-width="0.96" stroke-miterlimit="10" stroke-linecap="round" stroke-linejoin="round"/>
<path d="M19.5083 6.72004L20.4043 6.14404" stroke="black" stroke-width="0.96" stroke-miterlimit="10" stroke-linecap="round" stroke-linejoin="round"/>
<path d="M2.99609 16.256L3.89209 15.744" stroke="black" stroke-width="0.96" stroke-miterlimit="10" stroke-linecap="round" stroke-linejoin="round"/>
<path d="M3.89209 6.72004L2.99609 6.14404" stroke="black" stroke-width="0.96" stroke-miterlimit="10" stroke-linecap="round" stroke-linejoin="round"/>
<path d="M20.4043 16.256L19.5083 15.744" stroke="black" stroke-width="0.96" stroke-miterlimit="10" stroke-linecap="round" stroke-linejoin="round"/>
<path d="M16.1802 3.39203L16.7562 2.49603" stroke="black" stroke-width="0.96" stroke-miterlimit="10" stroke-linecap="round" stroke-linejoin="round"/>
<path d="M14.0039 2.49598L14.2599 1.47198" stroke="black" stroke-width="0.96" stroke-miterlimit="10" stroke-linecap="round" stroke-linejoin="round"/>
<path d="M20.4043 13.568L21.4283 13.824" stroke="black" stroke-width="0.96" stroke-miterlimit="10" stroke-linecap="round" stroke-linejoin="round"/>
<path d="M1.97217 8.64001L2.99617 8.89601" stroke="black" stroke-width="0.96" stroke-miterlimit="10" stroke-linecap="round" stroke-linejoin="round"/>
<path d="M9.33217 2.49598L9.07617 1.47198" stroke="black" stroke-width="0.96" stroke-miterlimit="10" stroke-linecap="round" stroke-linejoin="round"/>
<path d="M20.4043 8.89599L21.4283 8.57599" stroke="black" stroke-width="0.96" stroke-miterlimit="10" stroke-linecap="round" stroke-linejoin="round"/>
<path d="M1.97217 13.824L2.99617 13.568" stroke="black" stroke-width="0.96" stroke-miterlimit="10" stroke-linecap="round" stroke-linejoin="round"/>
<path d="M5.30019 4.86401L4.59619 4.09601" stroke="black" stroke-width="0.96" stroke-miterlimit="10" stroke-linecap="round" stroke-linejoin="round"/>
<path d="M18.8041 18.368L18.0361 17.6" stroke="black" stroke-width="0.96" stroke-miterlimit="10" stroke-linecap="round" stroke-linejoin="round"/>
<path d="M18.0361 4.86401L18.8041 4.09601" stroke="black" stroke-width="0.96" stroke-miterlimit="10" stroke-linecap="round" stroke-linejoin="round"/>
<path d="M4.59619 18.368L5.30019 17.6" stroke="black" stroke-width="0.96" stroke-miterlimit="10" stroke-linecap="round" stroke-linejoin="round"/>
<path d="M11.7002 20.288V12.928" stroke="black" stroke-width="0.96" stroke-miterlimit="10" stroke-linecap="round" stroke-linejoin="round"/>
<path d="M9.07617 15.424C9.07617 14.016 10.2282 12.8 11.7002 12.8C13.1722 12.8 14.3242 13.952 14.3242 15.424" stroke="black" stroke-width="0.96" stroke-miterlimit="10" stroke-linecap="round" stroke-linejoin="round"/>
<path d="M11.7002 26.496V28.608C11.7002 29.824 12.7242 30.848 13.9402 30.848H24.3082C25.5242 30.848 26.5482 29.824 26.5482 28.608V24.576" stroke="black" stroke-width="0.96" stroke-miterlimit="10" stroke-linecap="round" stroke-linejoin="round"/>
<path d="M30.4521 18.624V22.784C30.4521 23.808 29.6201 24.64 28.5961 24.64H24.3721C23.3481 24.64 22.5161 23.808 22.5161 22.784V18.624" stroke="black" stroke-width="0.96" stroke-miterlimit="10" stroke-linecap="round" stroke-linejoin="round"/>
<path d="M30.5161 18.624H22.5801C22.0681 18.624 21.6841 18.24 21.6841 17.728C21.6841 17.216 22.0681 16.832 22.5801 16.832H30.5161C31.0281 16.832 31.4121 17.216 31.4121 17.728C31.4121 18.24 30.9641 18.624 30.5161 18.624Z" stroke="black" stroke-width="0.96" stroke-miterlimit="10" stroke-linecap="round" stroke-linejoin="round"/>
<path d="M24.1162 16.832V13.696" stroke="black" stroke-width="0.96" stroke-miterlimit="10" stroke-linecap="round" stroke-linejoin="round"/>
<path d="M28.9805 16.832V13.696" stroke="black" stroke-width="0.96" stroke-miterlimit="10" stroke-linecap="round" stroke-linejoin="round"/>
<path d="M24.7559 20.416H28.3399" stroke="black" stroke-width="0.96" stroke-miterlimit="10" stroke-linecap="round" stroke-linejoin="round"/>
<path d="M24.7559 21.888H28.3399" stroke="black" stroke-width="0.96" stroke-miterlimit="10" stroke-linecap="round" stroke-linejoin="round"/>
</svg>
