<svg width="33" height="32" viewBox="0 0 33 32" fill="none" xmlns="http://www.w3.org/2000/svg">
<g clip-path="url(#clip0_12142_780)">
<path d="M31 4.5V2C31 1.60218 30.842 1.22064 30.5607 0.93934C30.2794 0.658035 29.8978 0.5 29.5 0.5C29.1022 0.5 28.7206 0.658035 28.4393 0.93934C28.158 1.22064 28 1.60218 28 2V4.5H26V2C26 1.60218 25.842 1.22064 25.5607 0.93934C25.2794 0.658035 24.8978 0.5 24.5 0.5C24.1022 0.5 23.7206 0.658035 23.4393 0.93934C23.158 1.22064 23 1.60218 23 2V4.5C22.6466 4.49933 22.3043 4.62376 22.0339 4.85125C21.7634 5.07874 21.5822 5.39461 21.5223 5.74291C21.4624 6.09121 21.5277 6.44947 21.7067 6.75423C21.8856 7.05899 22.1667 7.29059 22.5 7.408V10C22.5004 10.7396 22.6832 11.4677 23.032 12.1198C23.3808 12.772 23.885 13.3281 24.5 13.739V15.5C24.5013 15.8091 24.598 16.1103 24.777 16.3624C24.956 16.6144 25.2085 16.805 25.5 16.908V27C25.5 27.3978 25.342 27.7794 25.0607 28.0607C24.7794 28.342 24.3978 28.5 24 28.5C23.6022 28.5 23.2206 28.342 22.9393 28.0607C22.658 27.7794 22.5 27.3978 22.5 27V19.5C22.4988 18.4395 22.077 17.4228 21.3271 16.6729C20.5772 15.923 19.5605 15.5012 18.5 15.5H16.5V5.5C16.5 4.96957 16.2893 4.46086 15.9142 4.08579C15.5391 3.71071 15.0304 3.5 14.5 3.5H13.5V2.5C13.5 1.96957 13.2893 1.46086 12.9142 1.08579C12.5391 0.710714 12.0304 0.5 11.5 0.5H6.5C5.96957 0.5 5.46086 0.710714 5.08579 1.08579C4.71071 1.46086 4.5 1.96957 4.5 2.5V3.5H3.5C2.96957 3.5 2.46086 3.71071 2.08579 4.08579C1.71071 4.46086 1.5 4.96957 1.5 5.5V23.5C1.5 24.0304 1.71071 24.5391 2.08579 24.9142C2.46086 25.2893 2.96957 25.5 3.5 25.5H4.5V28H2.5C1.96957 28 1.46086 28.2107 1.08579 28.5858C0.710714 28.9609 0.5 29.4696 0.5 30L0.5 31C0.5 31.1326 0.552678 31.2598 0.646447 31.3536C0.740215 31.4473 0.867392 31.5 1 31.5H17C17.1326 31.5 17.2598 31.4473 17.3536 31.3536C17.4473 31.2598 17.5 31.1326 17.5 31V30C17.5 29.4696 17.2893 28.9609 16.9142 28.5858C16.5391 28.2107 16.0304 28 15.5 28H13.5V25.5H14.5C15.0304 25.5 15.5391 25.2893 15.9142 24.9142C16.2893 24.5391 16.5 24.0304 16.5 23.5V18.5H18.5C18.7652 18.5 19.0196 18.6054 19.2071 18.7929C19.3946 18.9804 19.5 19.2348 19.5 19.5V27C19.5 28.1935 19.9741 29.3381 20.818 30.182C21.6619 31.0259 22.8065 31.5 24 31.5C25.1935 31.5 26.3381 31.0259 27.182 30.182C28.0259 29.3381 28.5 28.1935 28.5 27V16.908C28.7915 16.805 29.044 16.6144 29.223 16.3624C29.402 16.1103 29.4987 15.8091 29.5 15.5V13.739C30.115 13.3281 30.6192 12.772 30.968 12.1198C31.3168 11.4677 31.4996 10.7396 31.5 10V7.408C31.8333 7.29059 32.1144 7.05899 32.2933 6.75423C32.4723 6.44947 32.5376 6.09121 32.4777 5.74291C32.4178 5.39461 32.2366 5.07874 31.9661 4.85125C31.6957 4.62376 31.3534 4.49933 31 4.5ZM5.5 2.5C5.5 2.23478 5.60536 1.98043 5.79289 1.79289C5.98043 1.60536 6.23478 1.5 6.5 1.5H11.5C11.7652 1.5 12.0196 1.60536 12.2071 1.79289C12.3946 1.98043 12.5 2.23478 12.5 2.5V3.5H5.5V2.5ZM15.5 29C15.7652 29 16.0196 29.1054 16.2071 29.2929C16.3946 29.4804 16.5 29.7348 16.5 30V30.5H1.5V30C1.5 29.7348 1.60536 29.4804 1.79289 29.2929C1.98043 29.1054 2.23478 29 2.5 29H15.5ZM5.5 28V25.5H12.5V28H5.5ZM15.5 23.5C15.5 23.7652 15.3946 24.0196 15.2071 24.2071C15.0196 24.3946 14.7652 24.5 14.5 24.5H3.5C3.23478 24.5 2.98043 24.3946 2.79289 24.2071C2.60536 24.0196 2.5 23.7652 2.5 23.5V5.5C2.5 5.23478 2.60536 4.98043 2.79289 4.79289C2.98043 4.60536 3.23478 4.5 3.5 4.5H14.5C14.7652 4.5 15.0196 4.60536 15.2071 4.79289C15.3946 4.98043 15.5 5.23478 15.5 5.5V23.5ZM29 2C29 1.86739 29.0527 1.74021 29.1464 1.64645C29.2402 1.55268 29.3674 1.5 29.5 1.5C29.6326 1.5 29.7598 1.55268 29.8536 1.64645C29.9473 1.74021 30 1.86739 30 2V4.5H29V2ZM24 2C24 1.86739 24.0527 1.74021 24.1464 1.64645C24.2402 1.55268 24.3674 1.5 24.5 1.5C24.6326 1.5 24.7598 1.55268 24.8536 1.64645C24.9473 1.74021 25 1.86739 25 2V4.5H24V2ZM27.5 27C27.5 27.9283 27.1313 28.8185 26.4749 29.4749C25.8185 30.1313 24.9283 30.5 24 30.5C23.0717 30.5 22.1815 30.1313 21.5251 29.4749C20.8687 28.8185 20.5 27.9283 20.5 27V19.5C20.5 18.9696 20.2893 18.4609 19.9142 18.0858C19.5391 17.7107 19.0304 17.5 18.5 17.5H16.5V16.5H18.5C19.2954 16.5008 20.058 16.8171 20.6204 17.3796C21.1829 17.942 21.4992 18.7046 21.5 19.5V27C21.5 27.663 21.7634 28.2989 22.2322 28.7678C22.7011 29.2366 23.337 29.5 24 29.5C24.663 29.5 25.2989 29.2366 25.7678 28.7678C26.2366 28.2989 26.5 27.663 26.5 27V17H27.5V27ZM28.5 15.5C28.5 15.6326 28.4473 15.7598 28.3536 15.8536C28.2598 15.9473 28.1326 16 28 16H26C25.8674 16 25.7402 15.9473 25.6464 15.8536C25.5527 15.7598 25.5 15.6326 25.5 15.5V14.2375C26.4694 14.5875 27.5306 14.5875 28.5 14.2375V15.5ZM30.5 10C30.5 10.9283 30.1313 11.8185 29.4749 12.4749C28.8185 13.1313 27.9283 13.5 27 13.5C26.0717 13.5 25.1815 13.1313 24.5251 12.4749C23.8687 11.8185 23.5 10.9283 23.5 10V7.5H30.5V10ZM31 6.5H23C22.8674 6.5 22.7402 6.44732 22.6464 6.35355C22.5527 6.25979 22.5 6.13261 22.5 6C22.5 5.86739 22.5527 5.74021 22.6464 5.64645C22.7402 5.55268 22.8674 5.5 23 5.5H31C31.1326 5.5 31.2598 5.55268 31.3536 5.64645C31.4473 5.74021 31.5 5.86739 31.5 6C31.5 6.13261 31.4473 6.25979 31.3536 6.35355C31.2598 6.44732 31.1326 6.5 31 6.5Z" fill="black"/>
<path d="M14 5.5H4C3.86739 5.5 3.74021 5.55268 3.64645 5.64645C3.55268 5.74021 3.5 5.86739 3.5 6V12C3.5 12.1326 3.55268 12.2598 3.64645 12.3536C3.74021 12.4473 3.86739 12.5 4 12.5H14C14.1326 12.5 14.2598 12.4473 14.3536 12.3536C14.4473 12.2598 14.5 12.1326 14.5 12V6C14.5 5.86739 14.4473 5.74021 14.3536 5.64645C14.2598 5.55268 14.1326 5.5 14 5.5ZM13.5 11.5H4.5V6.5H13.5V11.5Z" fill="black"/>
<path d="M12.0003 16.75H9.98478L10.7313 14.1375C10.7526 14.0631 10.7563 13.9847 10.7421 13.9086C10.728 13.8324 10.6963 13.7607 10.6497 13.6988C10.6031 13.637 10.5427 13.5869 10.4734 13.5524C10.4041 13.5179 10.3277 13.5 10.2503 13.5H7.50028C7.3916 13.4999 7.28586 13.5353 7.19907 13.6007C7.11228 13.6661 7.04916 13.758 7.01928 13.8625L5.51928 19.1125C5.49799 19.1869 5.49427 19.2653 5.50843 19.3414C5.52259 19.4176 5.55423 19.4893 5.60087 19.5512C5.6475 19.613 5.70785 19.6631 5.77716 19.6976C5.84647 19.7321 5.92285 19.75 6.00028 19.75H7.92928L7.50478 22.934C7.49046 23.045 7.51379 23.1576 7.57102 23.2537C7.62826 23.3499 7.7161 23.4241 7.82049 23.4644C7.92487 23.5047 8.03977 23.5089 8.14679 23.4761C8.25381 23.4434 8.34676 23.3758 8.41078 23.284L12.4108 17.534C12.4625 17.459 12.4928 17.3713 12.4983 17.2804C12.5039 17.1895 12.4845 17.0988 12.4422 17.0181C12.4 16.9374 12.3365 16.8697 12.2586 16.8225C12.1807 16.7753 12.0914 16.7502 12.0003 16.75ZM8.76878 21.02L8.99578 19.316C9.00518 19.2454 8.99939 19.1736 8.97879 19.1054C8.9582 19.0372 8.92327 18.9742 8.87636 18.9207C8.82944 18.8671 8.77162 18.8241 8.70676 18.7947C8.6419 18.7653 8.5715 18.75 8.50028 18.75H6.66328L7.87728 14.5H9.58728L8.84128 17.1125C8.82 17.1869 8.81628 17.2652 8.83041 17.3413C8.84454 17.4174 8.87614 17.4892 8.92272 17.551C8.96929 17.6127 9.02958 17.6629 9.09883 17.6974C9.16807 17.732 9.24439 17.75 9.32178 17.75H11.0433L8.76878 21.02Z" fill="black"/>
</g>
<defs>
<clipPath id="clip0_12142_780">
<rect width="32" height="32" fill="white" transform="translate(0.5)"/>
</clipPath>
</defs>
</svg>
