<svg width="32" height="32" viewBox="0 0 32 32" fill="none" xmlns="http://www.w3.org/2000/svg">
<g clip-path="url(#clip0_12142_1047)">
<path d="M8.86422 0.471691L8.71094 0.61857V14.4368C8.71094 28.1079 8.71094 28.2487 8.8335 28.3712C9.10902 28.6467 9.51958 28.5731 9.66038 28.2179C9.74006 28.0343 9.75222 26.1904 9.75222 14.6816V1.36001H15.9996H22.2469V14.7245C22.2469 27.8074 22.2469 28.1015 22.3634 28.2912C22.5103 28.5299 22.7737 28.6035 23.0309 28.4688C23.1289 28.4199 23.2271 28.328 23.2514 28.2791C23.2697 28.224 23.2882 21.9763 23.2882 14.3997V0.61857L23.1349 0.471691L22.9881 0.318411H15.9996H9.0111L8.86422 0.471691Z" fill="#473F39"/>
<path d="M12.1105 3.51584C11.841 3.66912 11.841 3.7056 11.835 5.53088C11.835 7.21536 11.841 7.28864 11.9636 7.448L12.0862 7.60736H13.3726C14.659 7.60736 14.659 7.60736 14.8058 7.45408L14.9591 7.3072V5.55552V3.79776L14.7815 3.62016L14.6039 3.44256H13.4158C12.6433 3.44864 12.1902 3.47296 12.1105 3.51584ZM13.9175 5.5248V6.56608H13.3969H12.8762V5.5248V4.48352H13.3969H13.9175V5.5248Z" fill="#473F39"/>
<path d="M17.2186 3.61986L17.041 3.79746V5.55522V7.3069L17.1943 7.45378C17.3412 7.60706 17.3412 7.60706 18.6276 7.60706H19.914L20.0365 7.4477C20.1591 7.28834 20.1652 7.21506 20.1652 5.53058C20.1591 4.25058 20.1405 3.75426 20.0855 3.68098C19.9201 3.46658 19.7546 3.44226 18.5725 3.44226H17.3965L17.2186 3.61986ZM19.1236 5.52482V6.5661H18.6029H18.0823V5.52482V4.48354H18.6029H19.1236V5.52482Z" fill="#473F39"/>
<path d="M0.650379 6.62719C0.301259 6.76799 0.319499 6.49247 0.319499 12.311C0.319499 16.2618 0.337739 17.695 0.393099 17.793C0.564619 18.1238 0.962699 18.185 1.20782 17.9216L1.3611 17.7562V12.6848V7.60736H4.35022H7.34542L7.47406 7.46655C7.62734 7.30719 7.65166 6.96415 7.52302 6.79904C7.48014 6.73792 7.36974 6.66432 7.2779 6.62751C7.06958 6.55392 0.840459 6.54783 0.650379 6.62719Z" fill="#473F39"/>
<path d="M24.6609 6.65186C24.3486 6.78658 24.2811 7.23361 24.5323 7.47265C24.6731 7.60737 24.6791 7.60737 27.6561 7.60737H30.6388V18.1056V28.6039L30.259 28.5731C29.8977 28.5363 29.8731 28.5242 29.5118 28.1568C29.2302 27.8752 29.0462 27.7402 28.7707 27.6423C27.9131 27.3178 26.7799 27.6483 26.3451 28.3466C26.2286 28.5427 26.1982 28.5549 25.9041 28.5549C25.3159 28.5549 24.7159 28.9591 24.483 29.5165C24.2503 30.08 24.4523 30.913 24.9179 31.2989C25.371 31.6727 25.4692 31.6848 28.1335 31.6663C30.3508 31.648 30.5652 31.6355 30.7611 31.5315C31.0612 31.3722 31.3614 31.0784 31.5143 30.7904L31.6491 30.5453L31.6673 18.7424L31.6795 6.93954L31.5326 6.76801L31.3857 6.59649L28.115 6.58434C25.4692 6.57217 24.8139 6.58434 24.6609 6.65186ZM28.4766 28.6528C28.7031 28.7632 28.9422 29.0448 29.0155 29.2899C29.1259 29.6637 29.475 29.8474 29.7812 29.688C30.0507 29.5472 30.259 29.5715 30.4612 29.7738C30.6939 30.0064 30.6939 30.2269 30.4551 30.4599L30.2775 30.6435L27.9745 30.6253L25.6654 30.6071L25.5489 30.4602C25.3835 30.2579 25.3956 29.9335 25.5857 29.7498C25.7572 29.5722 25.9409 29.56 26.2532 29.6887C26.3758 29.7437 26.5412 29.7683 26.6267 29.7437C26.8043 29.7008 27.0247 29.4496 27.0247 29.2842C27.0247 29.1495 27.3003 28.8186 27.5454 28.6717C27.7723 28.5303 28.195 28.5242 28.4766 28.6528Z" fill="#473F39"/>
<path d="M3.70064 9.79391C3.65776 9.81215 3.58416 9.90399 3.5352 9.99615C3.4616 10.143 3.44336 10.4922 3.44336 11.8643V13.561L3.62096 13.7386L3.79856 13.9162H4.97456C6.19344 13.9162 6.43824 13.8733 6.5304 13.6406C6.54896 13.5856 6.5672 12.7462 6.5672 11.7786V10.0144L6.4264 9.88575C6.29168 9.75711 6.23664 9.75103 5.02992 9.75711C4.34384 9.75711 3.74352 9.77567 3.70064 9.79391ZM5.52592 11.8336V12.8749H5.00528H4.48464V11.8336V10.7923H5.00528H5.52592V11.8336Z" fill="#473F39"/>
<path d="M11.9636 9.91039C11.841 10.0698 11.835 10.1491 11.835 11.8093C11.835 12.7587 11.8532 13.5856 11.8718 13.6406C11.9636 13.8733 12.2087 13.9162 13.4276 13.9162H14.6036L14.7812 13.7386L14.9588 13.561V11.8032V10.0512L14.8055 9.90431C14.6586 9.75103 14.6586 9.75103 13.3722 9.75103H12.0858L11.9636 9.91039ZM13.9175 11.8336V12.8749H13.3969H12.8762V11.8336V10.7923H13.3969H13.9175V11.8336Z" fill="#473F39"/>
<path d="M17.1943 9.90431L17.041 10.0512V11.8029V13.561L17.2186 13.7386L17.3962 13.9162H18.5722C19.7911 13.9162 20.0362 13.8733 20.1281 13.6406C20.1463 13.5856 20.1649 12.7587 20.1649 11.8093C20.1649 10.1494 20.1588 10.0698 20.0362 9.91039L19.9137 9.75103H18.6273C17.3412 9.75103 17.3412 9.75103 17.1943 9.90431ZM19.1236 11.8336V12.8749H18.6029H18.0823V11.8336V10.7923H18.6029H19.1236V11.8336Z" fill="#473F39"/>
<path d="M25.5668 9.89183C25.4321 10.0326 25.4321 10.0694 25.4321 11.7846C25.4321 12.7523 25.4504 13.5853 25.4689 13.6406C25.5608 13.8733 25.8059 13.9162 27.0248 13.9162H28.2008L28.3784 13.7386L28.556 13.561V11.8643C28.556 10.0941 28.5252 9.88607 28.2804 9.78783C28.2254 9.76959 27.619 9.75103 26.939 9.75103C25.7198 9.75103 25.6955 9.75103 25.5668 9.89183ZM27.5144 11.8336V12.8749H26.9937H26.4731V11.8336V10.7923H26.9937H27.5144V11.8336Z" fill="#473F39"/>
<path d="M3.62096 16.1763C3.44336 16.3539 3.44336 16.3661 3.44336 17.04C3.44336 17.7139 3.44336 17.7261 3.62096 17.9037C3.8536 18.1303 4.12336 18.1424 4.33136 17.9283C4.46 17.8058 4.48464 17.72 4.48464 17.4077V17.0403H4.9992H5.51984L5.5384 18.4429C5.55664 19.8333 5.55664 19.8515 5.70384 20.0048C5.88752 20.2007 6.1816 20.2131 6.40816 20.0355L6.56752 19.913V18.1056V16.2986L6.41424 16.1517C6.26736 15.9984 6.26096 15.9984 5.036 15.9984H3.79888L3.62096 16.1763Z" fill="#473F39"/>
<path d="M11.9878 16.1517L11.8345 16.2986V18.081V19.8634L11.9878 20.0102C12.1346 20.1635 12.141 20.1635 13.3596 20.1635C14.0332 20.1635 14.6274 20.1453 14.6825 20.1267C14.9276 20.0288 14.958 19.8205 14.958 18.0502V16.3536L14.7804 16.176L14.6028 15.9984H13.366C12.141 15.9984 12.135 15.9984 11.9878 16.1517ZM13.9174 18.081V19.1222H13.3967H12.8761V18.081V17.0397H13.3967H13.9174V18.081Z" fill="#473F39"/>
<path d="M17.2186 16.1763L17.041 16.3539V18.0506C17.041 19.8208 17.0717 20.0288 17.3165 20.127C17.3716 20.1453 17.9658 20.1638 18.6394 20.1638C19.8583 20.1638 19.8644 20.1638 20.0116 20.0106L20.1649 19.8637V18.0813V16.2989L20.0116 16.152C19.8647 15.9987 19.8583 15.9987 18.6333 15.9987H17.3962L17.2186 16.1763ZM19.1236 18.081V19.1222H18.6029H18.0823V18.081V17.0397H18.6029H19.1236V18.081Z" fill="#473F39"/>
<path d="M25.5854 16.1517L25.4321 16.2986V18.1056V19.9123L25.5915 20.0349C25.7448 20.1574 25.8302 20.1635 26.988 20.1635C27.8577 20.1574 28.2497 20.1389 28.3169 20.0838C28.5374 19.9123 28.556 19.7715 28.556 18.0502V16.3536L28.3784 16.176L28.2008 15.9984H26.9636C25.7387 15.9984 25.7326 15.9984 25.5854 16.1517ZM27.5147 18.081V19.1222H26.994H26.4734V18.081V17.0397H26.994H27.5147V18.081Z" fill="#473F39"/>
<path d="M2.58645 19.1773C1.60629 19.496 0.926611 20.8006 0.571091 23.0422C0.332371 24.5552 0.258771 26.0314 0.405651 26.5642C0.638291 27.4339 1.27541 28.12 2.12053 28.4077L2.40245 28.5056V29.9142V31.3229L2.58005 31.5005C2.80661 31.727 3.05781 31.7334 3.28437 31.5251L3.44373 31.3782V29.9389V28.5056L3.74997 28.4016C4.50933 28.1504 5.17109 27.4829 5.40373 26.7357C5.55701 26.2397 5.56309 25.376 5.43445 24.096C5.15253 21.4378 4.47893 19.729 3.53557 19.2816C3.27829 19.159 2.80053 19.104 2.58645 19.1773ZM3.16821 20.28C3.52341 20.4944 3.92757 21.456 4.17269 22.681C4.45461 24.0896 4.57077 25.8966 4.41173 26.4355C4.36277 26.5888 4.21557 26.8093 4.02581 27.0051C3.30293 27.7462 2.21269 27.6358 1.62485 26.76C1.36149 26.368 1.33077 26.0739 1.41045 24.8797C1.56981 22.6746 1.99221 21.0147 2.54965 20.433C2.84373 20.1328 2.90485 20.1146 3.16821 20.28Z" fill="#473F39"/>
<path d="M11.1613 22.289C10.7939 22.4237 10.6653 22.9014 10.9347 23.1526C11.0633 23.2752 11.1491 23.2874 11.9574 23.2995L12.8454 23.3178L12.8637 25.7802L12.8758 28.2362L13.072 28.4016C13.3046 28.5978 13.568 28.5792 13.7824 28.3341L13.9171 28.1808V25.7309V23.287H16H18.0825V25.743V28.1994L18.2601 28.377C18.4806 28.5974 18.6889 28.6035 18.9337 28.3955L19.1235 28.2362L19.1357 25.7802L19.1539 23.3178L20.0419 23.2995C20.8505 23.2874 20.936 23.2749 21.0646 23.1526C21.2669 22.9629 21.2544 22.6198 21.0464 22.4237L20.887 22.2768L16.0729 22.2646C13.4214 22.2582 11.2102 22.2704 11.1613 22.289Z" fill="#473F39"/>
<path d="M25.7995 22.289C25.7505 22.3072 25.6462 22.3808 25.5729 22.4483C25.4321 22.5709 25.4321 22.583 25.4321 24.3594C25.4321 26.056 25.4382 26.1478 25.5547 26.2765C25.7262 26.4602 25.9345 26.4848 27.1595 26.4602C28.6478 26.4358 28.5192 26.6195 28.5438 24.5248C28.556 23.6243 28.5438 22.7974 28.5256 22.6874C28.5009 22.5466 28.4276 22.4486 28.2929 22.369C28.1153 22.2586 27.9867 22.2464 26.9944 22.2525C26.3873 22.2522 25.8484 22.2704 25.7995 22.289ZM27.484 24.359V25.4003L26.9816 25.4186L26.4731 25.4368V24.3587V23.2806L26.9816 23.2989L27.484 23.3171V24.359Z" fill="#473F39"/>
<path d="M15.6509 25.5658C15.4672 25.7741 15.4425 25.9027 15.5344 26.1293C15.712 26.552 16.2877 26.552 16.4653 26.1293C16.6121 25.7802 16.3734 25.4311 15.9997 25.4311C15.847 25.4311 15.7366 25.4739 15.6509 25.5658Z" fill="#473F39"/>
<path d="M7.81068 29.743C7.63916 29.8899 7.63916 29.8963 7.63916 30.6371C7.63916 31.3782 7.63916 31.3843 7.81068 31.5315C8.23948 31.8989 8.71116 31.5562 8.71116 30.8822V30.6371H15.8468H22.9886L23.1355 30.4838C23.356 30.2694 23.3499 29.896 23.1294 29.7245C22.964 29.5958 22.9579 29.5958 15.4731 29.5958H7.9822L7.81068 29.743Z" fill="#473F39"/>
</g>
<defs>
<clipPath id="clip0_12142_1047">
<rect width="32" height="32" fill="white"/>
</clipPath>
</defs>
</svg>
