<svg width="50" height="50" viewBox="0 0 50 50" fill="none" xmlns="http://www.w3.org/2000/svg">
<g clip-path="url(#clip0_186_323)">
<path d="M49.2676 45.7952H48.4344V25.341H49.2676C49.5155 25.341 49.7466 25.2156 49.8818 25.0077C50.0169 24.7998 50.0376 24.5377 49.9369 24.3111L46.8057 17.2657C46.6881 17.0013 46.4258 16.8308 46.1363 16.8308H30.7831L25.7324 11.78V8.11884H30.4798C30.8843 8.11884 31.2122 7.79091 31.2122 7.38641V3.47235C31.2122 3.06786 30.8843 2.73993 30.4798 2.73993H25C24.5955 2.73993 24.2676 3.06786 24.2676 3.47235V11.7801L19.2168 16.8308H3.86369C3.57424 16.8308 3.31194 17.0013 3.19436 17.2657L0.0631073 24.3111C-0.0375763 24.5377 -0.0167756 24.7998 0.118283 25.0077C0.253342 25.2156 0.484494 25.341 0.732443 25.341H1.56565V45.7953H0.732443C0.327951 45.7953 2.13114e-05 46.1232 2.13114e-05 46.5277C2.13114e-05 46.9322 0.327951 47.2601 0.732443 47.2601H49.2676C49.6721 47.2601 50 46.9322 50 46.5277C50 46.1232 49.6721 45.7952 49.2676 45.7952ZM29.7474 6.65399H25.7324V4.20477H29.7474V6.65399ZM4.33967 18.2956H17.752L12.1714 23.8762H1.85949L4.33967 18.2956ZM3.03049 25.341H12.4747C12.669 25.341 12.8553 25.2639 12.9926 25.1265L25 13.1191L37.0073 25.1265C37.1446 25.2639 37.331 25.341 37.5252 25.341H43.005C43.4095 25.341 43.7374 25.0131 43.7374 24.6086C43.7374 24.2041 43.4095 23.8762 43.005 23.8762H37.8286L32.2481 18.2956H45.6604L48.1406 23.8762H46.1363C45.7319 23.8762 45.4039 24.2041 45.4039 24.6086C45.4039 25.0131 45.7319 25.341 46.1363 25.341H46.9696V45.7953H31.995V43.3965C31.995 42.992 31.6671 42.6641 31.2626 42.6641H30.4294V36.3511C30.4294 35.9466 30.1015 35.6186 29.697 35.6186H20.3031C19.8987 35.6186 19.5707 35.9466 19.5707 36.3511V42.6641H18.7375C18.333 42.6641 18.0051 42.992 18.0051 43.3965V45.7953H3.03049V25.341ZM28.9646 37.0834V42.664H25.7324V37.0834H28.9646ZM24.2676 42.664H21.0355V37.0834H24.2676V42.664ZM30.5302 44.1288V45.7952H19.4698V44.1288H30.5302Z" fill="#2A2622"/>
<path d="M25.0002 31.6036C27.9939 31.6036 30.4296 29.1681 30.4296 26.1742C30.4296 23.1804 27.994 20.7448 25.0002 20.7448C22.0063 20.7448 19.5708 23.1805 19.5708 26.1742C19.5708 29.168 22.0064 31.6036 25.0002 31.6036ZM25.0002 22.2097C27.1862 22.2097 28.9647 23.9882 28.9647 26.1742C28.9647 28.3602 27.1862 30.1388 25.0002 30.1388C22.8142 30.1388 21.0356 28.3603 21.0356 26.1742C21.0356 23.9881 22.8142 22.2097 25.0002 22.2097Z" fill="#2A2622"/>
<path d="M25 28.4724C25.4045 28.4724 25.7324 28.1444 25.7324 27.7399V26.627L26.8932 26.0466C27.255 25.8657 27.4017 25.4258 27.2207 25.064C27.0398 24.7022 26.5999 24.5554 26.2381 24.7364L24.6725 25.5192C24.4243 25.6433 24.2676 25.8969 24.2676 26.1743V27.7399C24.2676 28.1444 24.5955 28.4724 25 28.4724Z" fill="#2A2622"/>
<path d="M16.3888 35.6185H5.4292C5.02471 35.6185 4.69678 35.9465 4.69678 36.351V41.0479C4.69678 41.4524 5.02471 41.7803 5.4292 41.7803H6.99512C7.39961 41.7803 7.72754 41.4524 7.72754 41.0479C7.72754 40.6434 7.39961 40.3155 6.99512 40.3155H6.16162V37.0834H10.1766V40.3155H10.1263C9.72178 40.3155 9.39385 40.6434 9.39385 41.0479C9.39385 41.4524 9.72178 41.7803 10.1263 41.7803H16.3888C16.7933 41.7803 17.1212 41.4524 17.1212 41.0479V36.351C17.1212 35.9465 16.7933 35.6185 16.3888 35.6185ZM15.6563 40.3155H11.6414V37.0834H15.6563V40.3155Z" fill="#2A2622"/>
<path d="M16.3888 27.7903H5.4292C5.02471 27.7903 4.69678 28.1182 4.69678 28.5227V33.2197C4.69678 33.6242 5.02471 33.9521 5.4292 33.9521H16.3888C16.7933 33.9521 17.1212 33.6242 17.1212 33.2197V28.5227C17.1212 28.1182 16.7933 27.7903 16.3888 27.7903ZM6.16162 29.2551H10.1766V32.4873H6.16162V29.2551ZM15.6563 32.4872H11.6414V29.255H15.6563V32.4872Z" fill="#2A2622"/>
<path d="M33.6108 41.7803H44.5704C44.9749 41.7803 45.3028 41.4524 45.3028 41.0479V36.351C45.3028 35.9465 44.9749 35.6185 44.5704 35.6185H33.6108C33.2063 35.6185 32.8784 35.9465 32.8784 36.351V41.0479C32.8784 41.4524 33.2063 41.7803 33.6108 41.7803ZM43.838 40.3155H39.823V37.0834H43.838V40.3155ZM34.3433 37.0834H38.3582V40.3155H34.3433V37.0834Z" fill="#2A2622"/>
<path d="M33.6108 33.952H44.5704C44.9749 33.952 45.3028 33.6241 45.3028 33.2196V28.5226C45.3028 28.1182 44.9749 27.7902 44.5704 27.7902H33.6108C33.2063 27.7902 32.8784 28.1182 32.8784 28.5226V33.2196C32.8784 33.6242 33.2063 33.952 33.6108 33.952ZM43.838 32.4872H39.823V29.2551H43.838V32.4872ZM34.3433 29.2552H38.3582V32.4873H34.3433V29.2552Z" fill="#2A2622"/>
</g>
<defs>
<clipPath id="clip0_186_323">
<rect width="50" height="50" fill="white"/>
</clipPath>
</defs>
</svg>
