<svg width="24" height="24" viewBox="0 0 24 24" fill="none" xmlns="http://www.w3.org/2000/svg">
<g clip-path="url(#clip0_12142_710)">
<path fill-rule="evenodd" clip-rule="evenodd" d="M10.9474 5.69451H14.8321V6.81432H10.9474V8.60977H13.656V9.41017H10.9474V11.2056H14.8321V12.3262H10.9474V14.1216H13.656V14.922H10.9474V16.7175H14.8321V17.8373H10.9474V19.6335H13.656V20.4332H10.9474V22.2286H14.8321V23.3484H10.9474V24.0008H9.82756V0.000762939H21.796V24.0008H20.6762V1.12057H10.9481V3.09865H13.6567V3.89905H10.9481V5.69451H10.9474ZM2.20459 4.29512L4.84779 1.6414L5.24386 1.24383L5.63993 1.6414L8.28313 4.29512L7.49099 5.08274L5.80376 3.38875V24.0008H4.68395V3.38875L2.99672 5.08274L2.20459 4.29512Z" fill="#39322D"/>
</g>
<defs>
<clipPath id="clip0_12142_710">
<rect width="24" height="24" fill="white"/>
</clipPath>
</defs>
</svg>
