<svg width="50" height="50" viewBox="0 0 50 50" fill="none" xmlns="http://www.w3.org/2000/svg">
<g clip-path="url(#clip0_186_307)">
<path d="M44.2212 21.2792C46.2514 21.1716 47.8757 19.1204 47.8757 16.6149C47.8757 14.3292 46.5238 12.4218 44.7457 12.0224V11.4262C44.9128 11.266 45.065 11.0882 45.1997 10.8895C45.2931 10.7514 45.3366 10.585 45.3229 10.4183C45.0852 7.55884 43.7871 4.90686 41.6665 2.95144C39.5345 0.985338 36.7596 -0.0976562 33.8528 -0.0976562H30.6752C24.3267 -0.0976562 19.162 5.04952 19.162 11.3758V11.5368C19.162 11.7642 19.2681 11.9789 19.4489 12.1178C19.7068 12.3158 20.0039 12.4821 20.3312 12.6118C20.3579 12.6225 20.3846 12.6305 20.4113 12.6404V17.9772C20.4113 21.241 21.5016 23.9796 23.5638 25.8969C24.1646 26.4554 24.8433 26.9341 25.5833 27.3285C25.2709 27.6368 24.9848 27.9675 24.7269 28.3188C23.8198 28.6942 22.8371 28.8918 21.8224 28.8918C21.6374 28.8918 21.4535 28.8838 21.2708 28.8701V26.55C21.2708 25.8015 20.6593 25.1927 19.9078 25.1927H18.8107C18.8004 24.0399 17.854 23.1049 16.6916 23.1049H12.6557C11.4933 23.1049 10.5465 24.0399 10.5362 25.1927H9.43948C8.6876 25.1927 8.07649 25.8015 8.07649 26.55V36.8153H3.51143C2.75993 36.8153 2.14844 37.4242 2.14844 38.1726V48.5452C2.14844 49.2936 2.75993 49.9024 3.51143 49.9024H30.0404C30.0961 49.9024 30.1507 49.896 30.2033 49.8838C30.7908 49.8204 31.3225 49.5767 31.7433 49.2112C32.1637 49.5759 32.6943 49.8197 33.281 49.8834C33.334 49.896 33.3897 49.9021 33.4466 49.9021H41.8717C43.7905 49.9021 45.3515 48.3525 45.3515 46.4475C45.3515 44.7335 44.0873 43.308 42.4363 43.0394V41.6013C42.4363 41.1969 42.1086 40.8688 41.7039 40.8688C41.2991 40.8688 40.9714 41.1969 40.9714 41.6013V42.9932H36.2256C35.8273 41.9179 34.7886 41.1683 33.5881 41.1683C32.8824 41.1683 32.2373 41.4285 31.7429 41.8565C31.2489 41.4285 30.6038 41.1683 29.8985 41.1683C28.698 41.1683 27.6593 41.9179 27.261 42.9932H27.0722V40.9657C27.5986 41.0333 28.1258 41.0676 28.6515 41.0676C33.273 41.0676 37.7309 38.5087 39.901 34.1176C40.2211 33.4698 40.2688 32.7378 40.0346 32.0565C39.8 31.3729 39.3109 30.8224 38.6574 30.5066C37.3162 29.8588 35.6888 30.4162 35.0297 31.7494C34.4018 33.0197 33.4138 34.0596 32.1728 34.7565C31.82 34.9545 31.6945 35.4012 31.8925 35.7537C32.0908 36.1066 32.5371 36.2321 32.89 36.0341C34.3896 35.1918 35.5836 33.9349 36.3431 32.3983C36.6471 31.7826 37.3997 31.5262 38.02 31.8257C38.3191 31.9699 38.5422 32.2209 38.6491 32.5322C38.7551 32.8412 38.7334 33.1738 38.5876 33.4687C36.4247 37.8453 31.6868 40.1543 27.0722 39.4837V39.3258C27.4373 38.8444 27.6768 38.2626 27.7413 37.6225C27.7596 37.4429 27.7623 37.2632 27.7512 37.085C28.2513 37.14 28.7564 37.1522 29.2611 37.1178C29.6647 37.09 29.9691 36.7402 29.9416 36.3366C29.9138 35.933 29.5643 35.6301 29.1604 35.656C28.5222 35.7003 27.8828 35.6538 27.2603 35.5256C27.2389 35.4909 27.2171 35.4562 27.1946 35.4218L26.4466 33.466C26.2215 32.8705 25.6432 32.4708 25.0069 32.4708C24.8822 32.4708 24.759 32.4872 24.638 32.5169C24.8261 30.6595 25.6852 29.0902 27.0333 27.9645C27.6909 28.1968 28.3829 28.3707 29.1009 28.484C29.4079 29.8672 30.6519 30.906 32.1358 30.906C33.585 30.906 34.8054 29.9157 35.1479 28.5809C36.253 28.4672 37.3154 28.1846 38.3054 27.7558C39.9804 29.0223 40.9711 30.9258 40.9711 33.2032V38.1837C40.9711 38.588 41.2991 38.9161 41.7035 38.9161C42.1082 38.9161 42.4359 38.588 42.4359 38.1837V33.2032C42.4359 30.721 41.496 28.5866 39.7153 27.0169C41.8034 25.7165 43.4285 23.7099 44.2212 21.2792ZM32.2423 43.9603C32.2423 43.2286 32.8461 42.6331 33.5885 42.6331C34.2736 42.6331 34.8481 43.139 34.9251 43.8092C34.9679 44.1792 35.2807 44.4581 35.6526 44.4581H41.8717C42.9829 44.4581 43.8866 45.3507 43.8866 46.4478C43.8866 47.545 42.9829 48.4376 41.8717 48.4376H33.5477C33.5305 48.4353 33.5133 48.4334 33.4958 48.4323C32.7927 48.3853 32.2423 47.8044 32.2423 47.1105V43.9603ZM27.0726 44.4581H27.8344C28.2067 44.4581 28.5195 44.1792 28.5618 43.8092C28.6389 43.139 29.2138 42.6331 29.8989 42.6331C30.3052 42.6331 30.6695 42.8124 30.9167 43.0943C30.8266 43.3671 30.7774 43.6582 30.7774 43.9603V47.1105C30.7774 47.4111 30.8266 47.7014 30.9167 47.9737C30.6889 48.2335 30.362 48.4075 29.9912 48.4323C29.9737 48.4334 29.9565 48.4353 29.9393 48.4376H27.0726V44.4581ZM21.2708 30.3387C21.4539 30.3498 21.6378 30.3567 21.8224 30.3567C22.4667 30.3567 23.0992 30.2876 23.7141 30.1575C23.3719 31.0315 23.1728 31.9832 23.1396 32.9941C22.7055 33.0418 22.266 33.0662 21.8224 33.0662C21.6378 33.0662 21.4539 33.0609 21.2708 33.0521V30.3387ZM21.3894 41.4407C21.4749 41.4407 21.6591 41.5448 21.7022 41.6177L22.6162 43.1863C22.6571 43.2572 22.6571 43.4602 22.6162 43.5315L21.7022 45.0997C21.6591 45.1726 21.4749 45.2771 21.3894 45.2771H19.5614C19.4756 45.2771 19.2913 45.1726 19.2482 45.0997L18.3342 43.5311C18.2934 43.4602 18.2934 43.2572 18.3342 43.1863L19.2482 41.6177C19.2913 41.5448 19.4756 41.4403 19.5614 41.4403H21.3894V41.4407ZM12.6557 24.5698H16.6916C17.046 24.5698 17.3352 24.8475 17.3455 25.1927H12.0018C12.0121 24.8475 12.3009 24.5698 12.6557 24.5698ZM9.54134 26.6575H19.8059V36.8153H9.54134V26.6575ZM13.8783 48.4376H3.61328V38.2802H13.8783V48.4376ZM25.6077 48.4376H15.3431V38.2802H20.2839C20.2496 38.3828 20.2248 38.49 20.2137 38.6018L20.1931 38.8051C20.1485 39.2525 20.3091 39.6737 20.5983 39.9754H19.5614C18.9522 39.9754 18.2881 40.3561 17.9825 40.8803L17.0689 42.4489C16.7614 42.9761 16.7614 43.7417 17.0689 44.2689L17.9825 45.8375C18.2885 46.3616 18.9522 46.7423 19.5614 46.7423H21.3894C21.9986 46.7423 22.6628 46.3616 22.968 45.8371L23.882 44.2689C24.189 43.7417 24.189 42.9765 23.882 42.4489L22.9683 40.8803C22.8978 40.7601 22.8081 40.6476 22.7051 40.545L23.9445 40.6697C24.0632 40.6815 24.1833 40.6876 24.302 40.6876C24.7635 40.6876 25.2045 40.5991 25.6077 40.4382V48.4376ZM24.7044 35.0053C24.8555 34.805 24.8932 34.541 24.8047 34.306L24.7319 34.1141C24.7246 34.0951 24.7254 34.076 24.7338 34.0573C24.7422 34.039 24.7563 34.0256 24.7757 34.0184L24.9806 33.941C24.9897 33.9375 24.9985 33.9356 25.0073 33.9356C25.0123 33.9356 25.0588 33.9371 25.0779 33.9867L25.8576 36.0249C25.879 36.0818 25.9076 36.1352 25.9423 36.1848C26.2085 36.5632 26.3298 37.0221 26.2845 37.476C26.1841 38.4721 25.3319 39.2232 24.302 39.2232C24.2321 39.2232 24.1616 39.2194 24.0914 39.2125L21.6645 38.9684C21.6561 38.9676 21.65 38.96 21.6507 38.952L21.6713 38.749C21.6725 38.7379 21.6828 38.7353 21.6877 38.7353H21.6881L23.441 38.9115C23.8427 38.9531 24.2024 38.659 24.2432 38.2565L24.2562 38.1264C24.276 37.933 24.2176 37.7396 24.0948 37.5893C23.972 37.4387 23.7942 37.3433 23.6008 37.3238L21.4611 37.1083C21.4543 37.1075 21.447 37.0988 21.4478 37.0919L21.468 36.889C21.4692 36.8779 21.4802 36.8764 21.4848 36.8752L23.6245 37.0908C23.8179 37.1098 24.0109 37.0518 24.1616 36.929C24.3119 36.8062 24.4072 36.6284 24.4267 36.4354L24.4397 36.3049C24.4801 35.9025 24.1867 35.5431 23.7843 35.5027L22.0311 35.3265C22.0238 35.3257 22.0166 35.3169 22.0173 35.3097L22.0379 35.1067C22.0391 35.0957 22.0501 35.0945 22.0543 35.0934L24.0414 35.2933C24.0464 35.2936 24.0555 35.2944 24.0601 35.2952C24.3107 35.3158 24.5537 35.2059 24.7044 35.0053ZM32.1362 29.4411C31.5304 29.4411 31.0013 29.1157 30.7168 28.6332C30.8472 28.637 30.9777 28.6393 31.1093 28.6393H33.5518C33.2665 29.1188 32.7393 29.4411 32.1362 29.4411ZM34.047 27.1744H31.1093C25.5005 27.1744 21.8762 23.5646 21.8762 17.9772V12.8517C22.6136 12.7869 23.3242 12.4592 23.9796 11.8702C24.1009 11.7615 24.2199 11.6444 24.3378 11.5181C24.3794 11.6574 24.4309 11.7909 24.4915 11.9175C24.8028 12.566 25.3552 13.0223 26.0891 13.2363C27.2812 13.5849 28.4855 13.073 29.6822 11.7131C29.9817 12.4253 30.5928 12.9486 31.4908 13.2321C31.8848 13.356 32.2754 13.4178 32.6615 13.4175C33.9432 13.4175 35.1704 12.7381 36.2622 11.4098C36.6326 10.9589 36.9393 10.4908 37.1793 10.0785C37.4886 10.5049 37.901 10.9791 38.424 11.3941C38.741 11.6451 39.2018 11.5921 39.4532 11.2751C39.7046 10.9581 39.6512 10.4977 39.3342 10.2463C38.3054 9.43033 37.8075 8.27829 37.8037 8.26875C37.6897 7.996 37.423 7.81862 37.1278 7.81862C37.1258 7.81862 37.1236 7.81862 37.1216 7.81862C36.8241 7.82129 36.5575 8.00401 36.4472 8.2802C36.4297 8.32445 34.6551 12.6938 31.9314 11.8347C31.26 11.623 30.634 11.203 31.0776 9.69164C31.1814 9.33802 31.0063 8.96227 30.6683 8.81464C30.3311 8.66663 29.9359 8.79289 29.7463 9.10913C28.5573 11.0935 27.3751 12.0865 26.4996 11.8305C26.1624 11.7317 25.9442 11.5582 25.8122 11.2839C25.5524 10.7426 25.6428 9.82554 26.0537 8.83104C26.2051 8.46407 26.0369 8.04331 25.6741 7.88194C25.3121 7.72096 24.8864 7.87737 24.7155 8.23595C22.8955 12.0522 21.3719 11.4483 20.871 11.2499C20.7863 11.2164 20.7062 11.1794 20.6299 11.1393C20.7566 5.72969 25.214 1.36719 30.6752 1.36719H33.8528C38.9455 1.36719 43.2774 5.25247 43.8363 10.2631C43.6326 10.4943 43.3816 10.6606 43.0741 10.7693C42.7708 10.8769 42.4714 10.9543 42.183 10.9997C41.7836 11.0626 41.5108 11.4376 41.5738 11.8374C41.6371 12.2368 42.0117 12.5099 42.4115 12.4466C42.6968 12.4012 42.9879 12.3333 43.2809 12.2433V12.6793C43.2809 12.8746 43.3587 13.0619 43.4972 13.1993C43.6345 13.3354 43.8199 13.4117 44.0133 13.4117C44.0282 13.4121 44.0427 13.4114 44.0606 13.4106C45.3572 13.4163 46.4108 14.8514 46.4108 16.6149C46.4108 18.3815 45.353 19.8189 44.053 19.8189C43.9694 19.8189 43.884 19.8124 43.7917 19.7983C43.4216 19.7419 43.0695 19.973 42.9734 20.3343C41.9045 24.3618 38.234 27.1744 34.047 27.1744Z" fill="#2A2622"/>
<path d="M36.2964 15.1951C35.8916 15.1951 35.564 15.5228 35.564 15.9276V17.1288C35.564 17.5335 35.8916 17.8612 36.2964 17.8612C36.7007 17.8612 37.0288 17.5335 37.0288 17.1288V15.9276C37.0288 15.5228 36.7007 15.1951 36.2964 15.1951Z" fill="#2A2622"/>
<path d="M25.4746 15.1951C25.0699 15.1951 24.7422 15.5228 24.7422 15.9276V17.1288C24.7422 17.5335 25.0699 17.8612 25.4746 17.8612C25.879 17.8612 26.207 17.5335 26.207 17.1288V15.9276C26.207 15.5228 25.879 15.1951 25.4746 15.1951Z" fill="#2A2622"/>
<path d="M30.8847 18.9156H31.3596C31.7644 18.9156 32.0921 18.5875 32.0921 18.1832C32.0921 17.7784 31.7644 17.4508 31.3596 17.4508H31.1426V16.7714C31.1426 16.3666 30.8145 16.0389 30.4102 16.0389C30.0054 16.0389 29.6777 16.3666 29.6777 16.7714V17.6949C29.6777 18.3678 30.219 18.9156 30.8847 18.9156Z" fill="#2A2622"/>
<path d="M33.7736 20.0749H28.3273C27.5759 20.0749 26.9644 20.6837 26.9644 21.4322C26.9644 23.6683 28.7973 25.4876 31.0503 25.4876C33.3036 25.4876 35.1366 23.6683 35.1366 21.4322C35.1366 20.6841 34.5251 20.0749 33.7736 20.0749ZM31.0503 24.0231C29.6415 24.0231 28.4883 22.9188 28.4311 21.5397H33.6698C33.6122 22.9188 32.4594 24.0231 31.0503 24.0231Z" fill="#2A2622"/>
<path d="M17.5063 30.0683L16.2226 29.8848L15.6504 28.7423C15.4647 28.3711 15.0904 28.1403 14.6735 28.1403C14.2565 28.1403 13.8823 28.3711 13.6965 28.7419L13.1243 29.8848L11.8392 30.0687C11.4268 30.1282 11.0896 30.4101 10.9587 30.8053C10.8287 31.1986 10.9385 31.6388 11.2376 31.9257L12.1604 32.8118L11.9433 34.0607C11.872 34.4685 12.0444 34.8878 12.3789 35.1262C12.5659 35.2612 12.7871 35.3326 13.0183 35.3326C13.1945 35.3326 13.37 35.2898 13.5226 35.2097L14.6735 34.6135L15.8206 35.2078C15.9762 35.2895 16.1517 35.3326 16.3283 35.3326C16.5599 35.3326 16.7811 35.2612 16.965 35.1285C17.3026 34.8874 17.475 34.4682 17.4037 34.0607L17.1866 32.8118L18.1086 31.926C18.4081 31.6388 18.518 31.1986 18.3879 30.8053C18.2582 30.4105 17.9206 30.1285 17.5063 30.0683ZM15.8908 32.0256C15.7149 32.1942 15.6348 32.4391 15.6768 32.6791L15.8305 33.5633L15.0103 33.1383C14.905 33.0834 14.7891 33.0563 14.6735 33.0563C14.5579 33.0563 14.4423 33.0834 14.3367 33.1383L13.5169 33.5633L13.6706 32.6791C13.7122 32.4391 13.6321 32.1942 13.4562 32.0252L12.8142 31.4088L13.7114 31.2806C13.9491 31.2463 14.1547 31.0979 14.2623 30.8835L14.6735 30.0625L15.0847 30.8835C15.1923 31.0982 15.3983 31.2466 15.6359 31.2806L16.5328 31.4088L15.8908 32.0256Z" fill="#2A2622"/>
<path d="M8.0236 46.4818C8.217 46.671 8.47335 46.7755 8.74534 46.7755C9.01695 46.7755 9.27329 46.6714 9.46708 46.4822L12.0885 43.9179C12.5379 43.4785 12.7855 42.8926 12.7855 42.2677C12.7855 41.6429 12.5379 41.0569 12.0885 40.6175C11.643 40.1818 11.0521 39.9423 10.4246 39.9423C9.79705 39.9423 9.20577 40.1822 8.7606 40.6175L8.74534 40.6323L8.73046 40.6175C8.28528 40.1822 7.69401 39.9423 7.06649 39.9423C6.43859 39.9423 5.84769 40.1818 5.40251 40.6175C4.95314 41.0569 4.70557 41.6429 4.70557 42.2677C4.70557 42.8926 4.95314 43.4785 5.40251 43.9183L8.0236 46.4818ZM6.42638 41.6646C6.59613 41.4983 6.82349 41.4067 7.06611 41.4067C7.30872 41.4067 7.53608 41.4983 7.70621 41.6646L8.23302 42.1803C8.5176 42.4584 8.97269 42.4584 9.25727 42.1803L9.78446 41.665C9.9546 41.4987 10.1816 41.4067 10.4246 41.4067C10.6672 41.4067 10.8942 41.4983 11.0643 41.6646C11.2295 41.826 11.3203 42.0403 11.3203 42.2677C11.3206 42.4951 11.2295 42.7094 11.0643 42.8708L8.74534 45.1387L6.42638 42.8708C6.2612 42.7094 6.17003 42.4951 6.17041 42.2677C6.17041 42.0403 6.2612 41.826 6.42638 41.6646Z" fill="#2A2622"/>
<path d="M43.9906 18.9095C44.1081 18.9095 44.2275 18.8813 44.3381 18.8214C45.9025 17.976 45.6466 16.2053 45.293 15.387C45.1324 15.0158 44.7013 14.8446 44.3297 15.0055C43.9586 15.1661 43.7877 15.5972 43.9483 15.9684C43.9685 16.0145 44.4297 17.1071 43.6416 17.5328C43.2857 17.725 43.1533 18.1695 43.3455 18.5254C43.4779 18.7703 43.7301 18.9095 43.9906 18.9095Z" fill="#2A2622"/>
</g>
<defs>
<clipPath id="clip0_186_307">
<rect width="50" height="50" fill="white"/>
</clipPath>
</defs>
</svg>
