<svg width="31" height="33" viewBox="0 0 31 33" fill="none" xmlns="http://www.w3.org/2000/svg">
<path d="M7.41254 17.5L25.9985 17.5C26.2638 17.5 26.5181 17.3946 26.7056 17.2071C26.8932 17.0195 26.9985 16.7652 26.9985 16.5C26.9985 16.2347 26.8932 15.9804 26.7056 15.7929C26.5181 15.6053 26.2638 15.5 25.9985 15.5L7.41254 15.5L14.7065 8.20796C14.8943 8.02018 14.9998 7.76551 14.9998 7.49996C14.9998 7.23441 14.8943 6.97973 14.7065 6.79196C14.5188 6.60418 14.2641 6.49869 13.9985 6.49869C13.733 6.49869 13.4783 6.60418 13.2905 6.79196L4.29054 15.792C4.19741 15.8848 4.12352 15.9952 4.07311 16.1167C4.0227 16.2382 3.99675 16.3684 3.99675 16.5C3.99675 16.6315 4.0227 16.7617 4.07311 16.8832C4.12352 17.0047 4.19741 17.1151 4.29054 17.208L13.2905 26.208C13.4783 26.3957 13.733 26.5012 13.9985 26.5012C14.2641 26.5012 14.5188 26.3957 14.7065 26.208C14.8943 26.0202 14.9998 25.7655 14.9998 25.5C14.9998 25.2344 14.8943 24.9797 14.7065 24.792L7.41254 17.5Z" fill="#2A2622"/>
</svg>
