<svg width="32" height="32" viewBox="0 0 32 32" fill="none" xmlns="http://www.w3.org/2000/svg">
<path fill-rule="evenodd" clip-rule="evenodd" d="M24.6668 9.33333C24.6668 8.22875 23.7714 7.33333 22.6668 7.33333H9.3335C8.22892 7.33333 7.3335 8.22875 7.3335 9.33333V28C7.3335 29.1045 8.22892 30 9.3335 30H22.6668C23.7714 30 24.6668 29.1045 24.6668 28V9.33333ZM22.6668 8.66666C23.035 8.66666 23.3335 8.96514 23.3335 9.33333V28C23.3335 28.3681 23.035 28.6667 22.6668 28.6667H9.3335C8.96531 28.6667 8.66683 28.3681 8.66683 28V9.33333C8.66683 8.96514 8.96531 8.66666 9.3335 8.66666H22.6668Z" fill="#473F39"/>
<path fill-rule="evenodd" clip-rule="evenodd" d="M16.0002 7.33333C16.3683 7.33333 16.6668 7.63181 16.6668 7.99999V29.3333C16.6668 29.7015 16.3683 30 16.0002 30C15.632 30 15.3335 29.7015 15.3335 29.3333V7.99999C15.3335 7.63181 15.632 7.33333 16.0002 7.33333Z" fill="#473F39"/>
<path fill-rule="evenodd" clip-rule="evenodd" d="M10.0002 2.66667C10.0002 2.29848 10.2987 2 10.6669 2H21.3336C21.7017 2 22.0002 2.29848 22.0002 2.66667V5.33333C22.0002 5.70152 21.7017 6 21.3336 6H10.6669C10.2987 6 10.0002 5.70152 10.0002 5.33333V2.66667ZM11.3336 3.33333V4.66667H20.6669V3.33333H11.3336Z" fill="#473F39"/>
<path fill-rule="evenodd" clip-rule="evenodd" d="M28.1954 20.4715C28.4558 20.7317 28.878 20.7317 29.1384 20.4715L31.1384 18.4715C31.3986 18.2111 31.3986 17.7889 31.1384 17.5285C30.878 17.2683 30.4558 17.2683 30.1954 17.5285L29.3336 18.3905V15.3333C29.3336 14.9652 29.035 14.6667 28.6669 14.6667C28.2988 14.6667 28.0002 14.9652 28.0002 15.3333V18.3905L27.1384 17.5285C26.878 17.2683 26.4558 17.2683 26.1954 17.5285C25.9352 17.7889 25.9352 18.2111 26.1954 18.4715L28.1954 20.4715Z" fill="#473F39"/>
<path fill-rule="evenodd" clip-rule="evenodd" d="M2.86226 15.5285C3.12261 15.2683 3.54471 15.2683 3.80506 15.5285L5.80506 17.5285C6.06542 17.7889 6.06542 18.2111 5.80506 18.4715C5.54471 18.7317 5.12261 18.7317 4.86226 18.4715L4.00033 17.6095V20.6667C4.00033 21.0348 3.70185 21.3333 3.33366 21.3333C2.96547 21.3333 2.66699 21.0348 2.66699 20.6667V17.6095L1.80506 18.4715C1.54471 18.7317 1.1226 18.7317 0.862255 18.4715C0.601905 18.2111 0.601905 17.7889 0.862255 17.5285L2.86226 15.5285Z" fill="#473F39"/>
</svg>
