<svg width="18" height="18" viewBox="0 0 18 18" fill="none" xmlns="http://www.w3.org/2000/svg">
<path d="M9 1.68752C6.20508 1.68752 3.9375 3.84577 3.9375 6.50393C3.9375 9.56252 7.3125 14.4095 8.55176 16.0837C8.6032 16.1543 8.67062 16.2118 8.74852 16.2515C8.82642 16.2911 8.91259 16.3118 9 16.3118C9.08741 16.3118 9.17358 16.2911 9.25148 16.2515C9.32938 16.2118 9.3968 16.1543 9.44824 16.0837C10.6875 14.4102 14.0625 9.56498 14.0625 6.50393C14.0625 3.84577 11.7949 1.68752 9 1.68752Z" stroke="#2A2622" stroke-width="1.125" stroke-linecap="round" stroke-linejoin="round"/>
<path d="M9 8.43752C9.93198 8.43752 10.6875 7.682 10.6875 6.75002C10.6875 5.81804 9.93198 5.06252 9 5.06252C8.06802 5.06252 7.3125 5.81804 7.3125 6.75002C7.3125 7.682 8.06802 8.43752 9 8.43752Z" stroke="#2A2622" stroke-width="1.125" stroke-linecap="round" stroke-linejoin="round"/>
</svg>
