<svg width="18" height="18" viewBox="0 0 18 18" fill="none" xmlns="http://www.w3.org/2000/svg">
<g clip-path="url(#clip0_186_212)">
<path fill-rule="evenodd" clip-rule="evenodd" d="M6.12924 11.8717C9.01299 14.7555 11.6852 15.0712 12.4697 15.1005C13.4177 15.135 14.3852 14.361 14.8037 13.5682C14.1362 12.7852 13.267 12.1777 12.3152 11.5192C11.7535 12.0802 11.0612 13.1227 10.1395 12.7492C9.61524 12.5385 8.32074 11.9422 7.18974 10.8105C6.05799 9.67947 5.46249 8.38497 5.25024 7.86147C4.87674 6.93822 5.92224 6.24447 6.48399 5.68272C5.82549 4.71522 5.22849 3.82347 4.44699 3.18972C3.64299 3.60972 2.86449 4.56972 2.89974 5.53047C2.92899 6.31497 3.24474 8.98722 6.12924 11.8717ZM12.4142 16.5997C11.3342 16.56 8.27349 16.137 5.06799 12.9322C1.86324 9.72672 1.44099 6.66672 1.40049 5.58597C1.34049 3.93897 2.60199 2.33922 4.05924 1.71447C4.23473 1.6387 4.42689 1.60985 4.61689 1.63075C4.80689 1.65166 4.98819 1.7216 5.14299 1.83372C6.34899 2.71347 7.18074 4.04622 7.89549 5.09022C8.04418 5.30731 8.1123 5.56955 8.08805 5.83155C8.06381 6.09356 7.94874 6.33885 7.76274 6.52497L6.74574 7.54272C6.98199 8.06397 7.46274 8.96247 8.25024 9.74997C9.03774 10.5375 9.93624 11.0182 10.4582 11.2545L11.4745 10.2375C11.6613 10.0511 11.9076 9.93616 12.1705 9.91273C12.4334 9.88929 12.6961 9.95883 12.913 10.1092C13.978 10.8472 15.229 11.667 16.141 12.8347C16.2622 12.9906 16.3393 13.1763 16.3643 13.3722C16.3892 13.5681 16.361 13.7671 16.2827 13.9485C15.655 15.4132 14.0665 16.6605 12.4142 16.5997Z" fill="#2A2622"/>
</g>
<defs>
<clipPath id="clip0_186_212">
<rect width="18" height="18" fill="white"/>
</clipPath>
</defs>
</svg>
