<svg width="50" height="50" viewBox="0 0 50 50" fill="none" xmlns="http://www.w3.org/2000/svg">
<g clip-path="url(#clip0_186_289)">
<path d="M33.8046 41.1595H47.0703V39.6947H30.1979C28.4298 39.0568 26.6327 38.5237 24.8133 38.093L21.0614 16.818L23.6237 16.3663C25.8768 15.969 25.8763 13.5445 25.9561 13.3631C26.0994 13.5129 26.916 15.7852 29.1749 15.3875L34.2854 14.4863C34.9918 14.3617 35.6075 13.9695 36.0189 13.3819C36.967 12.0282 36.2437 10.8155 36.1036 9.3322L36.0451 9.22595C30.2694 -1.27581 14.4911 -3.20296 5.2666 5.74343C0.527051 10.3399 0.0884766 15.5437 0.0388672 15.6915C0.421094 17.8369 0.406055 17.8739 0.523633 18.1955C0.973145 19.4169 2.23389 20.1378 3.51016 19.9129L8.6208 19.0117C9.58008 18.8426 10.3688 18.1591 10.6876 17.2577C10.7989 16.9429 10.8024 16.7751 10.9646 15.9467C11.1749 16.1646 11.9796 18.4197 14.2373 18.0214L16.7339 17.5811L20.1977 37.2286C18.6597 37.0167 17.1091 36.8795 15.5498 36.813C14.9559 33.7843 12.2822 31.4917 9.08213 31.4917C5.90166 31.4917 3.23486 33.7629 2.62295 36.7651H0V38.23H2.49395C2.57236 41.797 5.49639 44.6753 9.08203 44.6753C12.6371 44.6753 15.5618 41.8358 15.6687 38.284C25.619 38.7488 35.2484 42.3394 43.0704 48.4839H0V49.9487H50V48.4839H45.3837C41.8706 45.5056 37.9863 43.0499 33.8046 41.1595ZM4.20107 36.5159C5.18447 39.0615 8.08613 41.9737 10.6491 42.9645C6.67168 44.2445 2.93105 40.4609 4.20107 36.5159ZM12.7289 41.6826C12.7132 41.6985 12.6974 41.7144 12.6813 41.7301C12.218 42.0994 10.1753 41.5935 7.87354 39.2919C5.57207 36.9903 5.06602 34.9477 5.43516 34.4843C5.96289 33.9498 8.16299 34.7475 10.2905 36.875C12.592 39.1764 13.098 41.219 12.7289 41.6826ZM13.963 39.651C12.9747 37.0928 10.0651 34.1882 7.51455 33.2024C11.4637 31.9311 15.2423 35.6771 13.963 39.651ZM35.0213 11.6296C35.1381 12.2925 34.6938 12.9268 34.031 13.0436L28.9204 13.9448C28.4226 14.0328 27.9145 13.799 27.6571 13.3632L26.7616 11.8464L34.8092 10.4273L35.0213 11.6296ZM34.2312 9.04187L26.0827 10.4787C24.5937 6.28337 22.4627 3.1324 20.1646 1.51511C25.9901 1.67204 31.2758 4.44177 34.2312 9.04187ZM9.35449 16.5905C9.26758 17.0568 8.91318 17.4316 8.45859 17.549C8.37236 17.5713 8.68047 17.5123 3.25576 18.4702C2.5917 18.5873 1.9582 18.1415 1.8417 17.48L1.62969 16.2778L9.67715 14.8589L9.35449 16.5905ZM9.84756 13.3414L9.39824 13.4206L1.69912 14.7782C2.90293 9.44489 6.92227 5.03454 12.3426 2.89451C10.7363 5.20027 9.81191 8.88991 9.84756 13.3414ZM11.3114 13.0833C11.3158 3.0241 16.4001 -2.06438 21.7134 5.12449H19.1406V6.58933H22.6823C22.9562 7.05017 23.2216 7.53913 23.4765 8.05417H20.8984V9.51902H24.1431C24.3079 9.91326 24.4667 10.3195 24.6187 10.7369C23.1879 10.989 13.0522 12.7762 11.3114 13.0833ZM13.983 16.5787C13.4886 16.6663 12.9982 16.4465 12.7336 16.0198L11.7835 14.4875L24.6802 12.2135L24.3575 13.9451C24.2648 14.4426 23.8677 14.8358 23.3694 14.9236L13.983 16.5787ZM21.727 37.4662L18.1765 17.3267L19.6187 17.0724L23.2652 37.7504C22.7543 37.6466 22.2412 37.5536 21.727 37.4662Z" fill="#2A2622"/>
<path d="M48.5352 39.6947H50V41.1595H48.5352V39.6947Z" fill="#2A2622"/>
<path d="M43.3594 11.1791C45.9171 11.1791 47.998 9.09812 47.998 6.54041C47.998 3.98269 45.9171 1.90173 43.3594 1.90173C40.8017 1.90173 38.7207 3.98269 38.7207 6.54041C38.7207 9.09812 40.8017 11.1791 43.3594 11.1791ZM43.3594 3.36658C45.1095 3.36658 46.5332 4.79041 46.5332 6.54041C46.5332 8.29041 45.1095 9.71423 43.3594 9.71423C41.6093 9.71423 40.1855 8.29041 40.1855 6.54041C40.1855 4.79041 41.6093 3.36658 43.3594 3.36658Z" fill="#2A2622"/>
<path d="M30.1758 43.5033H31.6406V44.9681H30.1758V43.5033Z" fill="#2A2622"/>
<path d="M20.4102 41.5502H21.875V43.015H20.4102V41.5502Z" fill="#2A2622"/>
<path d="M1.85547 45.4564H3.32031V46.9213H1.85547V45.4564Z" fill="#2A2622"/>
<path d="M25.293 45.4564H26.7578V46.9213H25.293V45.4564Z" fill="#2A2622"/>
<path d="M15.5273 44.4799H16.9922V45.9447H15.5273V44.4799Z" fill="#2A2622"/>
<path d="M16.2109 5.12439H17.6758V6.58923H16.2109V5.12439Z" fill="#2A2622"/>
</g>
<defs>
<clipPath id="clip0_186_289">
<rect width="50" height="50" fill="white"/>
</clipPath>
</defs>
</svg>
