<svg width="31" height="33" viewBox="0 0 31 33" fill="none" xmlns="http://www.w3.org/2000/svg">
<path d="M23.5845 15.5H4.99854C4.73332 15.5 4.47896 15.6053 4.29143 15.7929C4.10389 15.9804 3.99854 16.2348 3.99854 16.5C3.99854 16.7652 4.10389 17.0196 4.29143 17.2071C4.47896 17.3946 4.73332 17.5 4.99854 17.5H23.5845L16.2905 24.792C16.1028 24.9798 15.9973 25.2344 15.9973 25.5C15.9973 25.7655 16.1028 26.0202 16.2905 26.208C16.4783 26.3958 16.733 26.5012 16.9985 26.5012C17.2641 26.5012 17.5188 26.3958 17.7065 26.208L26.7065 17.208C26.7997 17.1151 26.8735 17.0047 26.924 16.8832C26.9744 16.7618 27.0003 16.6315 27.0003 16.5C27.0003 16.3684 26.9744 16.2382 26.924 16.1167C26.8735 15.9952 26.7997 15.8849 26.7065 15.792L17.7065 6.79198C17.5188 6.60421 17.2641 6.49872 16.9985 6.49872C16.733 6.49872 16.4783 6.60421 16.2905 6.79198C16.1028 6.97975 15.9973 7.23443 15.9973 7.49998C15.9973 7.76553 16.1028 8.02021 16.2905 8.20798L23.5845 15.5Z" fill="#2A2622"/>
</svg>
