<svg width="25" height="24" viewBox="0 0 25 24" fill="none" xmlns="http://www.w3.org/2000/svg">
<path d="M22.1718 11.6H19.6V7.1C19.6 3.18505 16.415 0 12.5 0C8.58505 0 5.4 3.18505 5.4 7.1V10.35C5.4 10.5709 5.5791 10.75 5.8 10.75C6.0209 10.75 6.2 10.5709 6.2 10.35V7.1C6.2 3.76055 8.81185 1.02015 12.1 0.81305V1.82745C12.1 4.77705 10.0915 7.27355 7.28515 7.95145C7.0704 8.00335 6.9384 8.21945 6.9903 8.4342C7.04215 8.6489 7.25825 8.78095 7.47305 8.72905C7.52215 8.7172 7.5711 8.70475 7.6199 8.6918V11.6H2.8282C1.958 11.6 1.25 12.308 1.25 13.1782V13.65C1.25 13.8709 1.4291 14.05 1.65 14.05C1.8709 14.05 2.05 13.8709 2.05 13.65V13.1782C2.05 12.7491 2.3991 12.4 2.8282 12.4H3.35V20.5C3.35 21.1616 3.88835 21.7 4.55 21.7H4.65V22.8C4.65 23.4617 5.18835 24 5.85 24H19.15C19.4943 24 19.8224 23.8518 20.0503 23.5935C20.1964 23.4278 20.1805 23.1751 20.0148 23.0289C19.8492 22.8827 19.5964 22.8987 19.4503 23.0644C19.3742 23.1505 19.2648 23.2 19.15 23.2H5.85C5.62945 23.2 5.45 23.0205 5.45 22.8V21.3C5.45 21.0791 5.2709 20.9 5.05 20.9H4.55C4.32945 20.9 4.15 20.7206 4.15 20.5V12.4H17.4016C17.6225 12.4 17.8016 12.2209 17.8016 12C17.8016 11.7791 17.6225 11.6 17.4016 11.6H8.41985V8.4271C11.021 7.39 12.9 4.85755 12.9 1.82745V0.81305C16.1882 1.02015 18.8 3.76055 18.8 7.1V8.1149C16.8593 7.99325 15.0204 6.9766 13.8974 5.23065C13.7778 5.0449 13.5304 4.99115 13.3445 5.11065C13.1587 5.2302 13.105 5.4777 13.2245 5.6635C14.0443 6.93795 15.2216 7.892 16.5801 8.4298V10.2694C16.5801 10.4903 16.7592 10.6694 16.9801 10.6694C17.201 10.6694 17.3801 10.4903 17.3801 10.2694V8.692C17.84 8.81315 18.3152 8.8888 18.8 8.91575V12C18.8 12.2209 18.9791 12.4 19.2 12.4H20.85V20.5C20.85 20.7206 20.6705 20.9 20.45 20.9H18.15V14C18.15 13.7791 17.9709 13.6 17.75 13.6C17.5291 13.6 17.35 13.7791 17.35 14V20.9H14.65V14C14.65 13.7791 14.4709 13.6 14.25 13.6C14.0291 13.6 13.85 13.7791 13.85 14V20.9H11.15V14C11.15 13.7791 10.9709 13.6 10.75 13.6C10.5291 13.6 10.35 13.7791 10.35 14V20.9H7.64995V14C7.64995 13.7791 7.47085 13.6 7.24995 13.6C7.02905 13.6 6.84995 13.7791 6.84995 14V21.3C6.84995 21.5209 7.02905 21.7 7.24995 21.7H20.45C21.1116 21.7 21.65 21.1616 21.65 20.5V12.4H22.1718C22.6009 12.4 22.95 12.7491 22.95 13.1782V13.65C22.95 13.8709 23.1291 14.05 23.35 14.05C23.5709 14.05 23.75 13.8709 23.75 13.65V13.1782C23.75 12.308 23.042 11.6 22.1718 11.6Z" fill="#39322D"/>
</svg>
