<svg width="51" height="50" viewBox="0 0 51 50" fill="none" xmlns="http://www.w3.org/2000/svg">
<path d="M25.9705 37.3095C26.113 37.4695 26.197 37.688 26.1805 37.9065C26.172 38.1335 26.071 38.3435 25.9035 38.4945C25.752 38.629 25.5505 38.7045 25.3405 38.7045C25.106 38.7045 24.8805 38.604 24.721 38.4295C24.72 38.4285 24.7195 38.428 24.7185 38.427C24.567 38.2595 24.4915 38.0495 24.5 37.8225C24.5165 37.596 24.6175 37.394 24.7855 37.2425C25.1125 36.941 25.6645 36.974 25.9675 37.307C25.9685 37.308 25.9695 37.3085 25.9705 37.3095ZM42.5625 24.6095C42.5625 26.231 41.235 27.5505 39.6035 27.5505L30.7665 27.0375C29.983 26.996 29.2905 26.5905 28.8535 25.991L27.6465 28.0765C27.6415 28.0855 27.6335 28.0915 27.628 28.1005L27.55 28.2345L29.0795 29.8475C29.827 30.638 30.2305 31.6545 30.2305 32.7305C30.2385 33.9145 29.7265 35.0495 28.8435 35.848L28.4155 36.2345C28.4075 36.2425 28.4075 36.2425 28.4075 36.2425C28.0715 36.545 27.5175 36.5115 27.2155 36.184C27.215 36.1835 27.2145 36.1835 27.2145 36.183C27.0625 36.015 26.9875 35.7965 27.0045 35.57C27.013 35.351 27.1135 35.1405 27.282 34.998L27.7185 34.595C28.2565 34.116 28.5505 33.452 28.5505 32.73C28.5505 32.0905 28.307 31.4775 27.8615 31.0065L25.904 28.9395C25.695 28.7225 25.6275 28.421 25.7015 28.1365C25.702 28.135 25.7015 28.134 25.702 28.133L19.8205 26.1925L19.82 26.1935L19.316 26.991L7.4675 38.73C7.1985 38.999 7.0385 39.377 7.0385 39.755C7.0385 40.0325 7.1225 40.2845 7.299 40.4945C7.5425 40.789 7.8955 40.9575 8.2905 40.9655C8.635 40.9655 8.9545 40.831 9.1975 40.5955L9.231 40.5615L20.87 30.2515C21.1475 29.9995 21.5845 29.9745 21.895 30.1845L25.0205 32.2935C25.2395 32.444 25.3735 32.68 25.3905 32.941C25.4075 33.201 25.3065 33.445 25.1045 33.621L19.2485 38.823C19.005 39.0575 18.8785 39.3605 18.8785 39.705C18.8785 40.05 19.005 40.352 19.2485 40.5955C19.492 40.831 19.8115 40.9655 20.1555 40.9655C20.5 40.9655 20.8195 40.831 21.063 40.5955L21.0885 40.5615L22.282 39.495C22.6095 39.192 23.1725 39.226 23.4665 39.553C23.4675 39.554 23.468 39.5555 23.469 39.5565C23.7765 39.9015 23.751 40.428 23.4075 40.738L22.214 41.814V41.8225C21.6595 42.3515 20.9285 42.6465 20.1555 42.6465C19.3655 42.6465 18.6265 42.3435 18.0635 41.789C17.509 41.2345 17.198 40.4785 17.198 39.7055C17.198 38.9325 17.509 38.1675 18.0635 37.6215L18.097 37.588L23.1805 33.0845L21.5 31.9405L10.3495 41.822C10.3415 41.822 10.3415 41.822 10.3415 41.822C9.7865 42.351 9.064 42.646 8.2995 42.646H8.2825C7.4005 42.646 6.56 42.2515 5.997 41.562C5.585 41.0575 5.35 40.419 5.358 39.755C5.358 38.932 5.694 38.1255 6.2905 37.537L18.055 25.8655L18.7275 24.748C18.7355 24.735 18.7465 24.7235 18.756 24.711L22.403 18.683L22.9955 17.655L22.2505 16.916L17.9835 20.804C17.4235 21.3605 16.678 21.6395 15.9285 21.6395C15.171 21.6395 14.409 21.354 13.83 20.7795C13.2695 20.224 12.9605 19.4845 12.9605 18.698C12.9605 17.911 13.2695 17.1715 13.83 16.616L21.0405 10.19C22.027 9.311 23.5 9.3275 24.4665 10.23L26.5665 12.1885C26.538 11.9815 26.5185 11.771 26.5185 11.555C26.5185 9.2385 28.226 7.354 30.3245 7.354C32.423 7.354 34.131 9.239 34.131 11.555C34.131 13.0885 33.38 14.429 32.2655 15.1625C32.797 15.4825 33.187 15.976 33.372 16.5735C33.5265 17.0735 33.5225 17.5935 33.3655 18.079L33.7625 21.422L39.6385 21.668H39.6395C41.2355 21.669 42.5625 22.988 42.5625 24.6095ZM40.882 24.6095C40.882 23.9145 40.3085 23.349 39.6035 23.349L32.9775 23.0725C32.5655 23.055 32.2265 22.7415 32.178 22.332L31.9725 20.601L31.807 19.209L31.6415 17.817L31.6345 17.7575L31.608 17.536C31.5845 17.3375 31.6355 17.1495 31.7335 16.9925C31.655 16.8075 31.518 16.6555 31.333 16.5635L29.4975 15.6535C28.989 15.5285 28.52 15.2905 28.11 14.9655L27.8725 14.848L27.571 14.6985C27.3955 14.6115 27.204 14.593 27.024 14.6275C26.7865 14.673 26.57 14.8125 26.4425 15.035L24.662 18.125L24.2285 18.8775L23.8485 19.537L20.715 24.7185L25.2455 26.217L26.535 26.643L28.206 23.7545L27.38 19.2705C27.2955 18.8135 27.5975 18.3755 28.0535 18.292C28.4635 18.2165 28.8445 18.443 28.987 18.808C29.0065 18.8585 29.022 18.9105 29.0325 18.9655L29.502 21.5145L29.7365 22.787L29.971 24.059L30.0375 24.4195C30.045 24.4615 30.05 24.504 30.0515 24.546C30.0645 24.979 30.419 25.3365 30.859 25.359L39.6515 25.871C40.308 25.8695 40.882 25.3045 40.882 24.6095ZM22.866 15.1605L23.863 16.149L24.988 14.1965C25.137 13.938 25.3275 13.717 25.5445 13.533L23.3195 11.458C23.1555 11.3055 22.9435 11.228 22.7315 11.228C22.526 11.228 22.32 11.3005 22.158 11.445L14.9795 17.8405C14.7725 18.0475 14.64 18.3635 14.64 18.698C14.64 19.0325 14.772 19.3485 15.0125 19.5865C15.512 20.082 16.3255 20.082 16.825 19.5865L21.7085 15.1355C22.0385 14.8355 22.5485 14.8435 22.866 15.1605ZM28.199 11.5555C28.199 12.362 28.521 13.0795 29.0195 13.541C29.3125 13.8125 29.666 13.9945 30.0525 14.0535C30.142 14.0675 30.2325 14.0765 30.325 14.0765C31.4975 14.0765 32.451 12.9455 32.451 11.5555C32.451 10.1655 31.4975 9.0345 30.325 9.0345C29.1525 9.0345 28.199 10.165 28.199 11.5555ZM8.7155 13.236H14.6475C15.1115 13.236 15.488 12.8605 15.488 12.396C15.488 11.9315 15.1115 11.5555 14.6475 11.5555H8.7155C8.2515 11.5555 7.8755 11.9315 7.8755 12.396C7.8755 12.8605 8.2515 13.236 8.7155 13.236ZM6.1735 16.597H11.258C11.722 16.597 12.098 16.2215 12.098 15.757C12.098 15.2925 11.722 14.917 11.258 14.917H6.1735C5.7095 14.917 5.3335 15.2925 5.3335 15.757C5.3335 16.2215 5.7095 16.597 6.1735 16.597ZM9.6015 24.1595C9.6015 24.622 9.9715 25 10.4415 25H13.8025C14.265 25 14.643 24.622 14.643 24.1595C14.643 23.698 14.265 23.3195 13.8025 23.3195H10.4415C9.9715 23.3195 9.6015 23.698 9.6015 24.1595ZM6.2405 24.1595C6.2405 24.622 6.6105 25 7.081 25C7.543 25 7.921 24.622 7.921 24.1595C7.921 23.698 7.543 23.3195 7.081 23.3195C6.6105 23.3195 6.2405 23.698 6.2405 24.1595ZM45.6665 17.4375C45.6665 19.2915 44.159 20.7985 42.3055 20.7985C40.452 20.7985 38.9445 19.291 38.9445 17.4375C38.9445 15.584 40.452 14.0765 42.3055 14.0765C44.1595 14.0765 45.6665 15.5835 45.6665 17.4375ZM43.986 17.4375C43.986 16.511 43.232 15.757 42.3055 15.757C41.379 15.757 40.625 16.511 40.625 17.4375C40.625 18.364 41.379 19.118 42.3055 19.118C43.232 19.118 43.986 18.364 43.986 17.4375Z" fill="#2A2622"/>
</svg>
