<svg width="33" height="32" viewBox="0 0 33 32" fill="none" xmlns="http://www.w3.org/2000/svg">
<g clip-path="url(#clip0_12142_869)">
<path d="M28.149 9.2581C26.9967 9.2581 26.4098 8.72093 25.892 8.24699C25.4244 7.81898 25.055 7.48091 24.2658 7.48091C23.4765 7.48091 23.1071 7.81898 22.6395 8.24699C22.1217 8.72093 21.5348 9.2581 20.3824 9.2581C19.2301 9.2581 18.6432 8.72093 18.1254 8.24699C17.6578 7.81898 17.2885 7.48091 16.4992 7.48091C15.71 7.48091 15.3407 7.81898 14.8732 8.24699C14.3554 8.72093 13.7685 9.2581 12.6161 9.2581C11.4639 9.2581 10.8772 8.72093 10.3594 8.24699C9.89189 7.81898 9.52259 7.48091 8.73347 7.48091C7.94426 7.48091 7.57497 7.81898 7.10741 8.24699C6.58963 8.72093 6.00271 9.2581 4.85044 9.2581C3.69808 9.2581 3.11116 8.72093 2.59331 8.24699C2.12575 7.81898 1.75645 7.48091 0.967169 7.48091C0.709214 7.48091 0.5 7.27177 0.5 7.01374C0.5 6.75578 0.709214 6.54657 0.967169 6.54657C2.11944 6.54657 2.70636 7.08374 3.22422 7.55768C3.69178 7.98568 4.06115 8.32376 4.85044 8.32376C5.63964 8.32376 6.00894 7.98568 6.4765 7.55776C6.99428 7.08374 7.5812 6.54657 8.73347 6.54657C9.88566 6.54657 10.4725 7.08381 10.9903 7.55776C11.4578 7.98576 11.827 8.32376 12.6161 8.32376C13.4054 8.32376 13.7747 7.98568 14.2422 7.55776C14.76 7.08374 15.3469 6.54657 16.4992 6.54657C17.6516 6.54657 18.2384 7.08374 18.7563 7.55776C19.2238 7.98568 19.5932 8.32376 20.3824 8.32376C21.1718 8.32376 21.5411 7.98568 22.0086 7.55776C22.5265 7.08374 23.1134 6.54657 24.2658 6.54657C25.4181 6.54657 26.005 7.08374 26.5229 7.55776C26.9904 7.98568 27.3597 8.32376 28.149 8.32376C28.9385 8.32376 29.3078 7.98568 29.7755 7.55768C30.2934 7.08374 30.8804 6.54657 32.0328 6.54657C32.2908 6.54657 32.5 6.75578 32.5 7.01374C32.5 7.27177 32.2908 7.48091 32.0328 7.48091C31.2434 7.48091 30.874 7.81898 30.4063 8.24699C29.8884 8.72093 29.3015 9.2581 28.149 9.2581Z" fill="black"/>
<path d="M28.149 13.3069C26.9967 13.3069 26.4098 12.7698 25.892 12.2958C25.4244 11.8678 25.055 11.5297 24.2658 11.5297C23.4765 11.5297 23.1071 11.8678 22.6395 12.2958C22.1217 12.7698 21.5348 13.3069 20.3824 13.3069C19.2301 13.3069 18.6432 12.7698 18.1254 12.2958C17.6578 11.8678 17.2885 11.5297 16.4992 11.5297C15.71 11.5297 15.3407 11.8678 14.8732 12.2958C14.3554 12.7698 13.7685 13.3069 12.6161 13.3069C11.4639 13.3069 10.8772 12.7698 10.3594 12.2958C9.89189 11.8678 9.52259 11.5297 8.73347 11.5297C7.94426 11.5297 7.57497 11.8678 7.10741 12.2958C6.58963 12.7698 6.00271 13.3069 4.85044 13.3069C3.69808 13.3069 3.11116 12.7698 2.59331 12.2958C2.12575 11.8678 1.75645 11.5297 0.967169 11.5297C0.709214 11.5297 0.5 11.3206 0.5 11.0626C0.5 10.8046 0.709214 10.5954 0.967169 10.5954C2.11944 10.5954 2.70636 11.1326 3.22422 11.6065C3.69178 12.0345 4.06115 12.3726 4.85044 12.3726C5.63964 12.3726 6.00894 12.0345 6.4765 11.6066C6.99428 11.1326 7.5812 10.5954 8.73347 10.5954C9.88566 10.5954 10.4725 11.1326 10.9903 11.6066C11.4578 12.0346 11.827 12.3726 12.6161 12.3726C13.4054 12.3726 13.7747 12.0345 14.2422 11.6066C14.76 11.1326 15.3469 10.5954 16.4992 10.5954C17.6516 10.5954 18.2384 11.1326 18.7563 11.6066C19.2238 12.0345 19.5932 12.3726 20.3824 12.3726C21.1718 12.3726 21.5411 12.0345 22.0086 11.6066C22.5265 11.1326 23.1134 10.5954 24.2658 10.5954C25.4181 10.5954 26.005 11.1326 26.5229 11.6066C26.9904 12.0345 27.3597 12.3726 28.149 12.3726C28.9385 12.3726 29.3078 12.0345 29.7755 11.6065C30.2934 11.1326 30.8804 10.5954 32.0328 10.5954C32.2908 10.5954 32.5 10.8046 32.5 11.0626C32.5 11.3206 32.2908 11.5297 32.0328 11.5297C31.2434 11.5297 30.874 11.8678 30.4063 12.2958C29.8884 12.7698 29.3015 13.3069 28.149 13.3069Z" fill="black"/>
<path d="M28.149 17.3558C26.9967 17.3558 26.4098 16.8186 25.892 16.3446C25.4244 15.9166 25.055 15.5786 24.2658 15.5786C23.4765 15.5786 23.1071 15.9166 22.6395 16.3446C22.1217 16.8186 21.5348 17.3558 20.3824 17.3558C19.2301 17.3558 18.6432 16.8186 18.1254 16.3446C17.6578 15.9166 17.2885 15.5786 16.4992 15.5786C15.71 15.5786 15.3407 15.9166 14.8732 16.3446C14.3554 16.8186 13.7685 17.3558 12.6161 17.3558C11.4639 17.3558 10.8772 16.8186 10.3594 16.3446C9.89189 15.9166 9.52259 15.5786 8.73347 15.5786C7.94426 15.5786 7.57497 15.9166 7.10741 16.3446C6.58963 16.8186 6.00271 17.3558 4.85044 17.3558C3.69808 17.3558 3.11116 16.8186 2.59331 16.3446C2.12575 15.9166 1.75637 15.5786 0.967169 15.5786C0.709214 15.5786 0.5 15.3694 0.5 15.1114C0.5 14.8534 0.709214 14.6442 0.967169 14.6442C2.11944 14.6442 2.70636 15.1814 3.22422 15.6553C3.69178 16.0833 4.06115 16.4214 4.85044 16.4214C5.63964 16.4214 6.00894 16.0833 6.4765 15.6553C6.99428 15.1814 7.5812 14.6442 8.73347 14.6442C9.88566 14.6442 10.4725 15.1814 10.9903 15.6554C11.4578 16.0833 11.827 16.4214 12.6161 16.4214C13.4054 16.4214 13.7747 16.0833 14.2422 15.6553C14.76 15.1814 15.3469 14.6442 16.4992 14.6442C17.6516 14.6442 18.2384 15.1814 18.7563 15.6553C19.2238 16.0833 19.5932 16.4214 20.3824 16.4214C21.1718 16.4214 21.5411 16.0833 22.0086 15.6553C22.5265 15.1814 23.1134 14.6442 24.2658 14.6442C25.4181 14.6442 26.005 15.1814 26.5229 15.6553C26.9904 16.0833 27.3597 16.4214 28.149 16.4214C28.9385 16.4214 29.3078 16.0833 29.7755 15.6553C30.2934 15.1814 30.8804 14.6442 32.0328 14.6442C32.2908 14.6442 32.5 14.8534 32.5 15.1114C32.5 15.3694 32.2908 15.5786 32.0328 15.5786C31.2434 15.5786 30.874 15.9166 30.4063 16.3446C29.8884 16.8186 29.3015 17.3558 28.149 17.3558Z" fill="black"/>
<path d="M28.149 21.4046C26.9967 21.4046 26.4098 20.8674 25.892 20.3935C25.4244 19.9655 25.055 19.6274 24.2658 19.6274C23.4765 19.6274 23.1071 19.9655 22.6395 20.3934C22.1217 20.8674 21.5348 21.4046 20.3824 21.4046C19.2301 21.4046 18.6432 20.8674 18.1254 20.3934C17.6578 19.9655 17.2885 19.6274 16.4992 19.6274C15.71 19.6274 15.3407 19.9655 14.8732 20.3934C14.3554 20.8674 13.7685 21.4046 12.6161 21.4046C11.4639 21.4046 10.8772 20.8674 10.3594 20.3934C9.89189 19.9655 9.52259 19.6274 8.73347 19.6274C7.94426 19.6274 7.57497 19.9655 7.10741 20.3934C6.58963 20.8674 6.00271 21.4046 4.85044 21.4046C3.69808 21.4046 3.11116 20.8674 2.59331 20.3934C2.12575 19.9655 1.75637 19.6274 0.967169 19.6274C0.709214 19.6274 0.5 19.4182 0.5 19.1602C0.5 18.9022 0.709214 18.6931 0.967169 18.6931C2.11944 18.6931 2.70636 19.2302 3.22422 19.7042C3.69178 20.1322 4.06115 20.4702 4.85044 20.4702C5.63964 20.4702 6.00894 20.1322 6.4765 19.7042C6.99428 19.2302 7.5812 18.6931 8.73347 18.6931C9.88566 18.6931 10.4725 19.2302 10.9903 19.7042C11.4578 20.1322 11.827 20.4702 12.6161 20.4702C13.4054 20.4702 13.7747 20.1322 14.2422 19.7042C14.76 19.2302 15.3469 18.6931 16.4992 18.6931C17.6516 18.6931 18.2384 19.2302 18.7563 19.7042C19.2238 20.1322 19.5932 20.4702 20.3824 20.4702C21.1718 20.4702 21.5411 20.1322 22.0086 19.7042C22.5265 19.2302 23.1134 18.6931 24.2658 18.6931C25.4181 18.6931 26.005 19.2302 26.5229 19.7042C26.9904 20.1322 27.3597 20.4702 28.149 20.4702C28.9385 20.4702 29.3078 20.1322 29.7755 19.7042C30.2934 19.2302 30.8804 18.6931 32.0328 18.6931C32.2908 18.6931 32.5 18.9022 32.5 19.1602C32.5 19.4182 32.2908 19.6274 32.0328 19.6274C31.2434 19.6274 30.874 19.9655 30.4063 20.3935C29.8884 20.8674 29.3015 21.4046 28.149 21.4046Z" fill="black"/>
<path d="M28.149 25.4534C26.9967 25.4534 26.4098 24.9162 25.892 24.4422C25.4244 24.0142 25.055 23.6762 24.2658 23.6762C23.4765 23.6762 23.1071 24.0142 22.6395 24.4422C22.1217 24.9162 21.5348 25.4534 20.3824 25.4534C19.2301 25.4534 18.6432 24.9162 18.1254 24.4422C17.6578 24.0142 17.2885 23.6762 16.4992 23.6762C15.71 23.6762 15.3407 24.0142 14.8732 24.4422C14.3554 24.9162 13.7685 25.4534 12.6161 25.4534C11.4639 25.4534 10.8772 24.9162 10.3594 24.4422C9.89189 24.0142 9.52259 23.6762 8.73347 23.6762C7.94426 23.6762 7.57497 24.0142 7.10741 24.4422C6.58963 24.9162 6.00271 25.4534 4.85044 25.4534C3.69808 25.4534 3.11116 24.9162 2.59331 24.4422C2.12575 24.0142 1.75637 23.6762 0.967169 23.6762C0.709214 23.6762 0.5 23.4669 0.5 23.209C0.5 22.9509 0.709214 22.7418 0.967169 22.7418C2.11944 22.7418 2.70636 23.279 3.22422 23.7529C3.69178 24.1809 4.06115 24.519 4.85044 24.519C5.63964 24.519 6.00894 24.1809 6.4765 23.7529C6.99428 23.279 7.5812 22.7418 8.73347 22.7418C9.88566 22.7418 10.4725 23.279 10.9903 23.753C11.4578 24.1809 11.827 24.519 12.6161 24.519C13.4054 24.519 13.7747 24.1809 14.2422 23.7529C14.76 23.279 15.3469 22.7418 16.4992 22.7418C17.6516 22.7418 18.2384 23.279 18.7563 23.7529C19.2238 24.1809 19.5932 24.519 20.3824 24.519C21.1718 24.519 21.5411 24.1809 22.0086 23.7529C22.5265 23.279 23.1134 22.7418 24.2658 22.7418C25.4181 22.7418 26.005 23.279 26.5229 23.7529C26.9904 24.1809 27.3597 24.519 28.149 24.519C28.9385 24.519 29.3078 24.1809 29.7755 23.7529C30.2934 23.279 30.8804 22.7418 32.0328 22.7418C32.2908 22.7418 32.5 22.9509 32.5 23.209C32.5 23.4669 32.2908 23.6762 32.0328 23.6762C31.2434 23.6762 30.874 24.0142 30.4063 24.4422C29.8884 24.9162 29.3015 25.4534 28.149 25.4534Z" fill="black"/>
</g>
<defs>
<clipPath id="clip0_12142_869">
<rect width="32" height="32" fill="white" transform="translate(0.5)"/>
</clipPath>
</defs>
</svg>
