<svg width="14" height="14" viewBox="0 0 14 14" fill="none" xmlns="http://www.w3.org/2000/svg">
<path d="M7.43477 0.706909C6.93164 0.706909 6.45039 1.16437 6.36289 1.82718C6.26992 2.53347 6.67188 3.12546 7.20781 3.19109C7.74648 3.25671 8.28789 2.78367 8.38359 2.07628C8.4793 1.36917 8.06914 0.77937 7.53594 0.713198C7.50313 0.709097 7.46758 0.706909 7.43477 0.706909ZM6.39023 3.32507C5.35117 3.49734 4.33398 4.47078 3.81992 5.12976C3.50547 6.04304 3.42344 6.95359 3.25391 7.86414L4.025 7.84226C4.20547 7.1532 4.24922 6.42312 4.59922 5.78054C5.00391 5.55632 5.33477 5.21726 5.64922 4.85632C5.47422 5.75593 5.26641 6.83328 5.28828 7.63992C6.10312 9.57859 7.90508 11.479 8.925 13.2837L9.74258 12.6192C8.95508 11.0962 8.17031 9.70984 7.16406 8.23875C7.22148 8.0446 8.34805 3.76804 7.92969 3.53835C7.37734 3.78445 6.81133 3.70242 6.39023 3.32507ZM8.35625 4.92742C8.27148 5.41414 8.21133 5.88718 8.08281 6.37117C8.20586 6.51882 8.28789 6.65828 8.47383 6.78953C9.18477 7.20789 9.8957 7.50867 10.6066 7.79304L10.8582 6.97546L8.73906 5.94734C8.62148 5.60554 8.52305 5.25828 8.35625 4.92742ZM5.11602 8.47937C4.97656 9.16296 4.84805 9.85203 4.79883 10.5712C4.36406 11.438 3.82266 11.9821 3.14453 12.6602L3.96484 13.2946C4.59648 12.611 5.3293 12.0094 5.78867 11.2766L6.17148 10.1118C5.74219 9.59226 5.39492 9.05085 5.11602 8.47937Z" fill="#473F39"/>
</svg>
