<svg width="45" height="152" viewBox="0 0 45 152" fill="none" xmlns="http://www.w3.org/2000/svg">
<g clip-path="url(#clip0_186_503)">
<path d="M45 0L45 152L-6.64413e-06 152L0 -1.96701e-06L45 0Z" fill="#005DAB"/>
<path d="M28.806 69.624L16.194 69.624L16.194 65.78L21.1 65.78L21.1 62.844L16.194 62.844L16.194 59L28.806 59L28.806 62.844L24.168 62.844L24.168 65.78L28.806 65.78L28.806 69.624ZM16.194 78.716L18.68 78.01L18.68 74.652L16.194 73.9L16.194 70.78L28.806 74.652L28.806 78.716L16.194 82.633L16.194 78.716ZM21.433 75.303L21.433 77.34L25.092 76.322L21.433 75.303ZM28.806 93.651L20.453 93.651C18.87 93.651 17.73 93.183 17.034 92.247C16.344 91.317 15.999 90.103 15.999 88.605C15.999 87.027 16.332 85.758 16.997 84.798C17.662 83.844 18.746 83.367 20.249 83.367L28.805 83.367L28.805 87.275L20.702 87.275C20.098 87.275 19.658 87.4 19.381 87.651C19.104 87.908 18.965 88.315 18.965 88.871C18.965 89.336 19.063 89.715 19.261 90.009C19.464 90.309 19.692 90.486 19.945 90.541C20.198 90.602 20.69 90.633 21.423 90.633L28.805 90.633L28.806 93.651ZM19.844 94.422L20.491 97.991C19.475 98.291 18.967 99.061 18.967 100.303C18.967 101.269 19.226 101.752 19.743 101.752C20.014 101.752 20.223 101.639 20.371 101.413C20.525 101.193 20.661 100.795 20.778 100.22C21.203 98.025 21.757 96.615 22.441 95.991C23.0937 95.3788 23.9582 95.0433 24.853 95.055C25.4158 95.0439 25.974 95.1583 26.487 95.39C27.0001 95.6216 27.4551 95.9646 27.819 96.394C28.607 97.293 29.002 98.584 29.002 100.266C29.002 102.817 27.97 104.502 25.907 105.321L24.937 102.138C25.781 101.807 26.203 101.138 26.203 100.128C26.203 99.29 25.941 98.872 25.418 98.872C25.3103 98.8679 25.2034 98.8919 25.1078 98.9417C25.0123 98.9915 24.9313 99.0654 24.873 99.156C24.744 99.346 24.62 99.712 24.503 100.257L23.653 103.45C23.3982 104.091 22.9572 104.64 22.387 105.028C21.796 105.45 21.097 105.661 20.29 105.661C19.015 105.661 17.98 105.147 17.186 104.119C16.398 103.092 16.003 101.743 16.003 100.073C16.003 97.021 17.284 95.138 19.847 94.422L19.844 94.422ZM19.206 116.55L16.194 116.55L16.194 107.128L28.806 107.128L28.806 116.55L25.895 116.55L25.895 110.899L24.066 110.899L24.066 115.468L21.266 115.468L21.266 110.899L19.206 110.899L19.206 116.55ZM16.194 129.229L16.194 124.963L21.017 123.138L21.017 121.927L16.194 121.927L16.194 118.083L28.806 118.083L28.806 124.624C28.806 126.067 28.464 127.187 27.78 127.982C27.102 128.783 26.206 129.183 25.091 129.183C24.364 129.183 23.721 129.037 23.16 128.743C22.606 128.45 22.116 127.856 21.691 126.963L16.194 129.229ZM23.715 121.927L23.715 123.569C23.715 124.052 23.817 124.44 24.02 124.734C24.223 125.028 24.522 125.174 24.916 125.174C25.723 125.174 26.126 124.682 26.126 123.697L26.126 121.927L23.715 121.927ZM19.844 129.761L20.491 133.33C19.475 133.63 18.967 134.401 18.967 135.642C18.967 136.609 19.226 137.092 19.743 137.092C20.014 137.092 20.223 136.979 20.371 136.752C20.525 136.532 20.661 136.135 20.778 135.56C21.203 133.364 21.757 131.954 22.441 131.33C23.0937 130.718 23.9582 130.382 24.853 130.394C25.4159 130.383 25.9741 130.498 26.4872 130.729C27.0002 130.961 27.4552 131.304 27.819 131.734C28.607 132.633 29.002 133.924 29.002 135.606C29.002 138.156 27.97 139.841 25.907 140.661L24.937 137.477C25.781 137.147 26.203 136.477 26.203 135.468C26.203 134.63 25.941 134.211 25.418 134.211C25.3103 134.207 25.2034 134.231 25.1078 134.281C25.0123 134.331 24.9313 134.404 24.873 134.495C24.744 134.684 24.62 135.052 24.503 135.596L23.653 138.789C23.3982 139.43 22.9572 139.979 22.387 140.367C21.796 140.789 21.097 141 20.29 141C19.6867 141.013 19.0893 140.879 18.5487 140.611C18.0082 140.342 17.5407 139.947 17.186 139.459C16.398 138.431 16.003 137.083 16.003 135.413C16.003 132.361 17.284 130.477 19.847 129.761L19.844 129.761ZM34 11L34 21L11 21L11 11L34 11ZM34 25L34 35L25 35L25 25L34 25ZM20 25L20 35L11 35L11 25L20 25ZM34 39L34 49L11 49L11 39L34 39Z" fill="white"/>
</g>
<defs>
<clipPath id="clip0_186_503">
<rect width="152" height="45" fill="white" transform="translate(45) rotate(90)"/>
</clipPath>
</defs>
</svg>
