<svg width="404" height="121" viewBox="0 0 404 121" fill="none" xmlns="http://www.w3.org/2000/svg">
<g clip-path="url(#clip0_186_495)">
<path d="M0 0.697266H404V120.303H0V0.697266Z" fill="#EFEDEB"/>
<path d="M185.053 43.7394V77.2608H174.836V64.2212H167.033V77.2608H156.816V43.7394H167.033V56.0667H174.836V43.7394H185.053ZM209.219 77.2608L207.342 70.6533H198.417L196.418 77.2608H188.126L198.417 43.7394H209.219L219.63 77.2608H209.219ZM200.147 63.3361H205.562L202.856 53.6109L200.147 63.3361ZM248.914 43.7394V65.9408C248.914 70.1483 247.671 73.1783 245.183 75.0282C242.711 76.8621 239.484 77.7791 235.503 77.7791C231.309 77.7791 227.936 76.894 225.384 75.1265C222.848 73.359 221.581 70.4778 221.581 66.483V43.7421H231.968V65.279C231.968 66.8844 232.3 68.0538 232.967 68.7901C233.65 69.5263 234.732 69.8958 236.21 69.8958C237.446 69.8958 238.453 69.6353 239.234 69.109C240.032 68.5695 240.502 67.9635 240.648 67.291C240.811 66.6186 240.893 65.3109 240.893 63.3627V43.7421L248.914 43.7394ZM250.964 67.5595L260.45 65.8398C261.247 68.5402 263.294 69.8905 266.595 69.8905C269.162 69.8905 270.446 69.2021 270.446 67.8279C270.446 67.1076 270.146 66.5521 269.545 66.1588C268.96 65.7495 267.902 65.388 266.374 65.077C260.54 63.9474 256.792 62.4749 255.134 60.6569C253.507 58.9221 252.615 56.6243 252.646 54.2461C252.617 52.7502 252.921 51.2666 253.536 49.903C254.152 48.5394 255.064 47.33 256.205 46.3628C258.595 44.2684 262.026 43.2185 266.496 43.2185C273.277 43.2185 277.755 45.9614 279.932 51.4447L271.472 54.0228C270.592 51.7796 268.814 50.6579 266.13 50.6579C263.902 50.6579 262.791 51.3543 262.791 52.7444C262.78 53.0306 262.844 53.3147 262.977 53.5688C263.109 53.8228 263.305 54.0379 263.546 54.1929C264.051 54.5358 265.024 54.8654 266.473 55.1764L274.959 57.4356C276.662 58.1129 278.123 59.2849 279.153 60.8005C280.275 62.3713 280.836 64.2291 280.836 66.3741C280.836 69.7629 279.47 72.5138 276.737 74.6242C274.008 76.7186 270.422 77.7685 265.983 77.7685C257.872 77.7685 252.867 74.3637 250.964 67.5515V67.5595ZM309.778 69.2552V77.2608H284.735V43.7394H309.778V51.4766H294.758V56.3379H306.902V63.78H294.758V69.2552H309.778ZM343.477 77.2608H332.138L327.288 64.4418H324.069V77.2608H313.852V43.7394H331.237C335.073 43.7394 338.05 44.6484 340.163 46.4664C342.292 48.2685 343.355 50.65 343.355 53.6135C343.355 55.5458 342.967 57.2548 342.185 58.7459C341.407 60.2184 339.828 61.5207 337.454 62.6504L343.477 77.2608ZM324.069 57.2708H328.433C329.717 57.2708 330.748 56.9997 331.53 56.4601C332.311 55.9206 332.699 55.1259 332.699 54.0786C332.699 51.9337 331.392 50.8626 328.774 50.8626H324.069V57.2708ZM344.891 67.5595L354.377 65.8398C355.174 68.5402 357.224 69.8905 360.522 69.8905C363.092 69.8905 364.376 69.2021 364.376 67.8279C364.376 67.1076 364.076 66.5521 363.472 66.1588C362.888 65.7495 361.832 65.388 360.304 65.077C354.467 63.9474 350.72 62.4749 349.061 60.6569C347.434 58.9221 346.543 56.6243 346.573 54.2461C346.544 52.75 346.849 51.2663 347.465 49.9027C348.081 48.539 348.993 47.3298 350.135 46.3628C352.525 44.2684 355.956 43.2185 360.426 43.2185C367.204 43.2185 371.683 45.9614 373.862 51.4447L365.399 54.0228C364.522 51.7796 362.741 50.6579 360.06 50.6579C357.832 50.6579 356.719 51.3543 356.719 52.7444C356.708 53.0306 356.772 53.3147 356.904 53.5688C357.036 53.8228 357.233 54.0379 357.474 54.1929C357.976 54.5358 358.954 54.8654 360.4 55.1764L368.887 57.4356C370.589 58.1129 372.05 59.2849 373.081 60.8005C374.202 62.3713 374.763 64.2291 374.763 66.3741C374.797 67.9776 374.442 69.5655 373.728 71.0021C373.015 72.4388 371.965 73.6815 370.667 74.6242C367.935 76.7186 364.352 77.7685 359.913 77.7685C351.802 77.7685 346.794 74.3637 344.891 67.5515V67.5595ZM29.2368 29.9343H55.8158V91.0659H29.2368V29.9343ZM66.4473 29.9343H93.0263V53.8554H66.4473V29.9343ZM66.4473 67.1449H93.0263V91.0659H66.4473V67.1449ZM103.658 29.9343H130.237V91.0659H103.658V29.9343Z" fill="#39322D"/>
</g>
<defs>
<clipPath id="clip0_186_495">
<rect width="404" height="119.605" fill="white" transform="translate(0 0.697266)"/>
</clipPath>
</defs>
</svg>
